<ttFont>
          <CharString index="0">
            -107 callgsubr
            452 vlineto
            8 26 30 2 26 hhcurveto
            70 12 -31 -45 hvcurveto
            return
          </CharString>
          <CharString index="1">
            rmoveto
            -5 -26 -42 -7 -50 -96 callgsubr
            73 175 callsubr
            return
          </CharString>
          <CharString index="2">
            0 8 -28 -47 vvcurveto
            -146 vlineto
            -45 -20 -35 -75 -26 -27 5 5 -102 callsubr
            return
          </CharString>
          <CharString index="3">
            -105 callsubr
            50 36 13 23 23 hvcurveto
            return
          </CharString>
          <CharString index="4">
            -19 21 callgsubr
            24 9 14 19 19 -9 14 -24 return
          </CharString>
          <CharString index="5">
            -22 vhcurveto
            137 -45 -317 vlineto
            -38 callgsubr
            return
          </CharString>
          <CharString index="6">
            -40 272 hlineto
            0 13 -28 -47 vvcurveto
            -122 vlineto
            -61 -25 -37 -72 -25 -29 4 3 -19 vhcurveto
            124 -45 -268 62 callgsubr
            return
          </CharString>
          <CharString index="7">
            -45 -18 -25 -60 -60 -18 8 callgsubr
            191 vlineto
            45 18 25 60 vhcurveto
            return
          </CharString>
          <CharString index="8">
            -4 -9 -41 100 callgsubr
            289 callsubr
            49 41 -10 -4 9 vhcurveto
            return
          </CharString>
          <CharString index="9">
            -80 -43 -35 -75 -93 callgsubr
            return
          </CharString>
          <CharString index="10">
            0 37 12 44 70 19 -30 -45 vhcurveto
            -200 vlineto
            -45 -20 -31 -75 2 vhcurveto
            -41 vlineto
            0 11 -1 7 82 40 46 70 vhcurveto
            200 vlineto
            69 -44 48 -90 -42 -39 -12 0 vhcurveto
            116 return
          </CharString>
          <CharString index="11">
            32 61 550 rmoveto
            -50 vlineto
            11 31 50 9 46 hhcurveto
            93 22 -32 -56 hvcurveto
            -95 vlineto
            -148 -42 rlineto
            -84 -24 -36 -45 -64 vvcurveto
            -32 vlineto
            -82 41 -52 99 68 29 20 24 31 vhcurveto
            -40 49 432 vlineto
            85 -47 51 -117 -49 -50 -9 -9 -28 vhcurveto
            242 -464 rmoveto
            -24 -27 -45 -22 -53 hhcurveto
            -70 -24 30 59 hvcurveto
            31 vlineto
            46 19 27 68 20 vhcurveto
            132 37 rlineto
            return
          </CharString>
          <CharString index="12">
            -70 40 -49 82 3 vhcurveto
            6 12 1 0 hvcurveto
            41 vlineto
            -75 -2 -20 31 45 vvcurveto
            return
          </CharString>
          <CharString index="13">
            -84 callgsubr
            -26 -27 return
          </CharString>
          <CharString index="14">
            -3 callgsubr
            -25 callsubr
            253 callgsubr
            return
          </CharString>
          <CharString index="15">
            -93 callsubr
            vlineto
            endchar
          </CharString>
          <CharString index="16">
            -89 callgsubr
            vlineto
            endchar
          </CharString>
          <CharString index="17">
            -75 47 -42 90 30 28 5 5 20 vhcurveto
            -83 45 return
          </CharString>
          <CharString index="18">
            -7 -31 -32 -9 -60 hhcurveto
            -75 -42 28 68 hvcurveto
            return
          </CharString>
          <CharString index="19">
            0 8 -50 callsubr
            return
          </CharString>
          <CharString index="20">
            -84 callsubr
            -100 return
          </CharString>
          <CharString index="21">
            -45 -12 -25 -70 -70 -12 8 callgsubr
            return
          </CharString>
          <CharString index="22">
            45 -79 callsubr
            return
          </CharString>
          <CharString index="23">
            -100 -80 callgsubr
            return
          </CharString>
          <CharString index="24">
            113 callsubr
            -7 0 1 -7 vhcurveto
            -42 vlineto
            -1 8 8 0 8 hhcurveto
            82 34 53 64 hvcurveto
            return
          </CharString>
          <CharString index="25">
            rmoveto
            122 vlineto
            64 27 45 79 79 27 -45 -64 vhcurveto
            -122 vlineto
            -262 -158 rmoveto
            -95 59 -49 124 46 38 7 8 27 vhcurveto
            -28 callsubr
            -110 -46 -68 -86 vhcurveto
            endchar
          </CharString>
          <CharString index="26">
            -61 callgsubr
            185 callgsubr
            -148 45 148 72 callgsubr
            return
          </CharString>
          <CharString index="27">
            vlineto
            8 26 30 2 26 hhcurveto
            70 12 -31 -45 hvcurveto
            return
          </CharString>
          <CharString index="28">
            604 100 return
          </CharString>
          <CharString index="29">
            vlineto
            -90 callsubr
            return
          </CharString>
          <CharString index="30">
            -75 37 -37 90 90 37 37 75 vhcurveto
            return
          </CharString>
          <CharString index="31">
            -75 43 -37 80 80 43 37 75 vhcurveto
            return
          </CharString>
          <CharString index="32">
            -105 callgsubr
            -446 303 callgsubr
            252 callgsubr
            -57 -24 -16 -72 -2 vhcurveto
            26 -11 -28 19 -54 hhcurveto
            -130 return
          </CharString>
          <CharString index="33">
            -190 145 rlineto
            42 2 21 28 72 hhcurveto
            26 21 -5 0 hvcurveto
            42 vlineto
            0 -22 5 -25 -95 -45 -42 -75 vhcurveto
            280 callgsubr
            45 -42 95 return
          </CharString>
          <CharString index="34">
            -2 40 -12 38 -40 15 rrcurveto
            43 15 11 46 45 vvcurveto
            71 vlineto
            78 -51 48 -95 -46 -33 -7 -8 -25 vhcurveto
            -46 vlineto
            10 28 33 9 43 hhcurveto
            73 28 -35 -49 hvcurveto
            -71 vlineto
            -45 -10 -39 -81 -1 vhcurveto
            -61 -42 61 hlineto
            81 -1 10 -39 -45 vvcurveto
            -80 vlineto
            -49 -28 -35 -73 -42 -40 8 9 -32 vhcurveto
            -44 vlineto
            -9 35 37 -6 42 hhcurveto
            95 51 48 78 hvcurveto
            53 130 -213 45 604 return
          </CharString>
          <CharString index="35">
            vvcurveto
            -63 callsubr
            return
          </CharString>
          <CharString index="36">
            rmoveto
            -75 -27 -23 -112 -112 -28 23 75 vhcurveto
            38 254 callsubr
            47 42 -47 hlineto
            -75 1 -16 29 45 vvcurveto
            132 vlineto
            47 10 28 0 vhcurveto
            189 -111 hlineto
            -35 -27 -8 0 hvcurveto
            -42 vlineto
            0 26 8 30 69 11 -30 -45 vhcurveto
            return
          </CharString>
          <CharString index="37">
            -61 callsubr
            40 return
          </CharString>
          <CharString index="38">
            vlineto
            -68 callsubr
            return
          </CharString>
          <CharString index="39">
            -75 47 -42 90 30 28 5 5 20 vhcurveto
            -83 37 callgsubr
            return
          </CharString>
          <CharString index="40">
            rmoveto
            -380 vlineto
            122 callsubr
            380 vlineto
            86 -49 67 245 callsubr
            -49 -67 -86 vhcurveto
            268 hmoveto
            -380 124 callgsubr
            380 vlineto
            64 30 44 79 79 30 -44 -64 vhcurveto
            return
          </CharString>
          <CharString index="41">
            -45 -317 vlineto
            -82 callgsubr
            return
          </CharString>
          <CharString index="42">
            135 callgsubr
            -41 vlineto
            105 callsubr
            18 -12 -27 17 hvcurveto
            95 -149 rlineto
            return
          </CharString>
          <CharString index="43">
            -178 -82 hlineto
            -59 callsubr
            return
          </CharString>
          <CharString index="44">
            146 -97 callgsubr
            return
          </CharString>
          <CharString index="45">
            rmoveto
            -27 -113 rlineto
            31 hlineto
            13 20 31 50 19 vvcurveto
            17 -12 7 -13 vhcurveto
            return
          </CharString>
          <CharString index="46">
            -604 -85 callsubr
            return
          </CharString>
          <CharString index="47">
            7 hlineto
            -170 -152 rlineto
            66 hlineto
            175 161 rlineto
            -113 31 callsubr
          </CharString>
          <CharString index="48">
            17 callgsubr
            -40 callsubr
            return
          </CharString>
          <CharString index="49">
            rmoveto
            -64 -31 -34 -79 -79 -31 34 64 vhcurveto
            78 vlineto
            64 31 34 79 79 31 -34 -64 vhcurveto
            100 118 rmoveto
            51 -15 vlineto
            -42 -32 -18 -37 -12 hvcurveto
            18 -26 -36 11 -47 hhcurveto
            -110 -50 -57 -86 hvcurveto
            -78 vlineto
            -68 31 -50 68 -18 vhcurveto
            -27 -7 -23 -22 -35 vvcurveto
            -16 vlineto
            -54 43 -31 75 vhcurveto
            60 hlineto
            73 10 -29 -40 hvcurveto
            -11 vlineto
            -46 -32 -29 -93 vhcurveto
            -40 hlineto
            -68 -40 11 22 -41 hvcurveto
            -50 vlineto
            -16 31 49 -12 69 hhcurveto
            41 hlineto
            128 46 47 74 hvcurveto
            10 vlineto
            72 -37 42 -97 vhcurveto
            -59 hlineto
            -54 -18 17 35 42 22 19 43 110 50 57 86 hvcurveto
            78 vlineto
            40 -11 34 -23 25 vhcurveto
            11 12 17 8 22 hhcurveto
            endchar
          </CharString>
          <CharString index="50">
            42 vlineto
            -9 -35 -35 -7 -43 hhcurveto
            -75 -47 32 64 hvcurveto
            143 vlineto
            -10 28 31 -6 36 hhcurveto
            95 45 47 75 hvcurveto
            return
          </CharString>
          <CharString index="51">
            -40 77 -360 10 callsubr
            447 -15 callsubr
            return
          </CharString>
          <CharString index="52">
            34 callsubr
            28 -5 -11 24 vhcurveto
            return
          </CharString>
          <CharString index="53">
            18 42 hlineto
            -75 -2 -20 31 45 vvcurveto
            268 161 callsubr
            36 -8 -6 25 vhcurveto
            -449 -85 callsubr
            return
          </CharString>
          <CharString index="54">
            -46 callgsubr
            hlineto
            endchar
          </CharString>
          <CharString index="55">
            -94 callsubr
            5 5 -22 vhcurveto
            return
          </CharString>
          <CharString index="56">
            -76 callsubr
            186 -72 callgsubr
            return
          </CharString>
          <CharString index="57">
            -28 -47 vvcurveto
            return
          </CharString>
          <CharString index="58">
            -88 callsubr
            -73 24 callgsubr
            return
          </CharString>
          <CharString index="59">
            -47 -75 hvcurveto
            -79 callgsubr
            return
          </CharString>
          <CharString index="60">
            vlineto
            -77 callsubr
            return
          </CharString>
          <CharString index="61">
            44 13 31 66 66 13 -30 -45 vhcurveto
            return
          </CharString>
          <CharString index="62">
            hhcurveto
            -98 -53 -48 callsubr
            28 35 78 return
          </CharString>
          <CharString index="63">
            -24 -9 -14 -19 return
          </CharString>
          <CharString index="64">
            -40 285 -479 vlineto
            -107 callgsubr
            return
          </CharString>
          <CharString index="65">
            -57 callsubr
            145 vlineto
            75 -45 47 -95 -95 -45 -47 -75 -17 3 -20 0 vhcurveto
            389 154 157 callgsubr
          </CharString>
          <CharString index="66">
            rmoveto
            -486 vlineto
            0 -43 -36 -65 -63 -32 34 67 vhcurveto
            421 -50 -421 vlineto
            -93 49 -52 95 64 46 30 0 vhcurveto
            -27 49 563 vlineto
            return
          </CharString>
          <CharString index="67">
            -141 92 callsubr
            return
          </CharString>
          <CharString index="68">
            hhcurveto
            -124 -47 -34 callsubr
            return
          </CharString>
          <CharString index="69">
            -45 10 -36 48 -16 vhcurveto
            55 callgsubr
            return
          </CharString>
          <CharString index="70">
            -79 57 -47 95 40 24 3 7 29 vhcurveto
            -24 callsubr
            return
          </CharString>
          <CharString index="71">
            rmoveto
            -6 -16 -34 -4 -35 hhcurveto
            -70 -15 30 45 hvcurveto
            177 callsubr
            32 28 -4 -6 25 vhcurveto
            return
          </CharString>
          <CharString index="72">
            108 callsubr
            38 26 7 4 15 vhcurveto
            return
          </CharString>
          <CharString index="73">
            37 103 hvcurveto
            52 32 vlineto
            -22 callsubr
            return
          </CharString>
          <CharString index="74">
            vlineto
            -53 callgsubr
            return
          </CharString>
          <CharString index="75">
            27 -20 -36 16 -51 hhcurveto
            return
          </CharString>
          <CharString index="76">
            -16 -27 -21 hvcurveto
            -32 callsubr
            return
          </CharString>
          <CharString index="77">
            rmoveto
            -380 vlineto
            1 -67 0 -68 1 -67 -26 68 -27 67 -26 68 -149 379 rcurveline
            -65 -666 49 378 hlineto
            -1 67 0 68 -1 67 26 -68 27 -67 26 -68 149 -377 rcurveline
            66 666 hlineto
            return
          </CharString>
          <CharString index="78">
            rmoveto
            -40 261 97 callsubr
            -20 3 -18 7 -16 vhcurveto
            -7 -36 -42 -6 -33 hhcurveto
            -82 -50 25 75 hvcurveto
            52 -49 callgsubr
            53 166 callgsubr
            return
          </CharString>
          <CharString index="79">
            49 vlineto
            -9 -30 -38 -8 -43 hhcurveto
            -96 -37 35 62 hvcurveto
            113 262 167 vlineto
            86 -46 68 -110 return
          </CharString>
          <CharString index="80">
            190 -144 rlineto
            -11 vlineto
            -48 -24 -27 -71 -75 -20 30 45 vhcurveto
            return
          </CharString>
          <CharString index="81">
            830 rmoveto
            105 callsubr
            18 -12 -27 17 hvcurveto
            95 -149 rlineto
            48 84 callgsubr
            return
          </CharString>
          <CharString index="82">
            50 44 7 5 24 return
          </CharString>
          <CharString index="83">
            -97 42 238 13 callsubr
            return
          </CharString>
          <CharString index="84">
            45 -26 callgsubr
          </CharString>
          <CharString index="85">
            115 60 34 111 hvcurveto
            56 2 callgsubr
            -57 vlineto
            -87 -45 -15 -87 vhcurveto
            return
          </CharString>
          <CharString index="86">
            119 callgsubr
            vhcurveto
            return
          </CharString>
          <CharString index="87">
            75 -45 41 -95 vhcurveto
            -17 hlineto
            -75 -20 29 45 hvcurveto
            41 98 callsubr
            return
          </CharString>
          <CharString index="88">
            rmoveto
            46 hlineto
            48 105 rlineto
            -36 hlineto
            -35 -68 -35 68 rlineto
            -36 hlineto
            return
          </CharString>
          <CharString index="89">
            143 callgsubr
            -24 5 -32 103 callgsubr
            -5 31 25 -10 callsubr
            return
          </CharString>
          <CharString index="90">
            45 callsubr
            105 283 217 callgsubr
            -60 -27 -14 -82 -1 vhcurveto
            13 -9 -21 7 -32 hhcurveto
            -103 131 -18 callsubr
            -131 211 callsubr
            25 callsubr
          </CharString>
          <CharString index="91">
            -4 callsubr
            -178 rmoveto
            -82 hlineto
            -36 -27 -6 -11 -20 hvcurveto
            57 -6 -32 38 -88 80 callgsubr
            373 257 callgsubr
            332 258 rmoveto
            -1035 -40 285 -479 hlineto
            -107 callsubr
            -211 -1 callsubr
          </CharString>
          <CharString index="92">
            vlineto
            8 26 40 2 26 hhcurveto
            70 12 -31 -45 hvcurveto
            return
          </CharString>
          <CharString index="93">
            55 vlineto
            78 -51 38 -62 -29 -17 -8 0 vhcurveto
            -41 vlineto
            0 22 7 23 251 callgsubr
            return
          </CharString>
          <CharString index="94">
            -45 hhcurveto
            -11 -9 -1 -1 -7 hvcurveto
            return
          </CharString>
          <CharString index="95">
            -77 callsubr
            209 callgsubr
          </CharString>
          <CharString index="96">
            8 26 20 2 26 hhcurveto
            70 22 -30 -45 hvcurveto
            return
          </CharString>
          <CharString index="97">
            vvcurveto
            -46 callsubr
            return
          </CharString>
          <CharString index="98">
            -49 -20 -35 -73 -48 -33 11 7 -20 vhcurveto
            -43 vlineto
            -8 21 32 -9 48 hhcurveto
            95 43 48 78 hvcurveto
            return
          </CharString>
          <CharString index="99">
            rmoveto
            -37 -105 rlineto
            37 327 callsubr
            return
          </CharString>
          <CharString index="100">
            hhcurveto
            -25 callsubr
            hvcurveto
            75 callgsubr
          </CharString>
          <CharString index="101">
            136 callgsubr
            39 hlineto
            70 8 -27 -45 hvcurveto
            -30 45 30 vlineto
            75 -36 39 -87 vhcurveto
            -41 hlineto
            36 callgsubr
            return
          </CharString>
          <CharString index="102">
            -32 hhcurveto
            -52 -40 -31 callsubr
            return
          </CharString>
          <CharString index="103">
            rmoveto
            -142 178 142 hlineto
            -187 return
          </CharString>
          <CharString index="104">
            -35 callsubr
            -134 43 return
          </CharString>
          <CharString index="105">
            4 callgsubr
            334 240 rmoveto
            40 -625 -40 397 -121 vlineto
            -44 -5 -27 -18 -14 -30 rrcurveto
            35 -16 -34 20 -59 hhcurveto
            -90 -38 -46 -75 hvcurveto
            -248 vlineto
            -75 37 -46 90 59 35 19 35 16 vhcurveto
            11 -23 20 -17 29 -8 -87 -156 rcurveline
            49 hlineto
            81 150 rlineto
            8 hlineto
            4 hlineto
            81 -150 rlineto
            49 hlineto
            -87 155 rlineto
            56 14 24 42 60 vvcurveto
            248 vlineto
            69 -33 44 -75 7 vhcurveto
            120 vlineto
            endchar
          </CharString>
          <CharString index="106">
            vlineto
            -12 callsubr
          </CharString>
          <CharString index="107">
            32 callgsubr
            432 -80 callsubr
            return
          </CharString>
          <CharString index="108">
            -67 -21 -26 -36 -36 -21 26 67 67 21 26 36 36 21 -26 -67 vhcurveto
            -159 hmoveto
            -87 37 -48 65 65 37 48 87 87 -37 48 -65 -65 -37 -48 -87 vhcurveto
            return
          </CharString>
          <CharString index="109">
            rmoveto
            280 callsubr
            70 15 -30 -45 vhcurveto
            -136 vlineto
            -45 -15 -30 -70 -70 -15 30 45 vhcurveto
            return
          </CharString>
          <CharString index="110">
            241 callsubr
            -196 -203 rlineto
            61 hlineto
            210 217 rlineto
            -217 -52 callgsubr
          </CharString>
          <CharString index="111">
            -34 -26 -24 -40 -39 vvcurveto
            -43 26 -22 52 vhcurveto
            12 42 -12 hlineto
            -26 -13 9 27 32 19 36 32 24 hvcurveto
            return
          </CharString>
          <CharString index="112">
            4 -9 -41 10 -49 hhcurveto
            return
          </CharString>
          <CharString index="113">
            -23 21 callgsubr
            24 9 14 23 23 191 callsubr
            -23 vhcurveto
            return
          </CharString>
          <CharString index="114">
            139 rmoveto
            -6 -33 -45 -6 -45 hhcurveto
            -101 -37 40 86 hvcurveto
            1 vlineto
            80 54 33 83 hvcurveto
            return
          </CharString>
          <CharString index="115">
            rmoveto
            182 -230 rlineto
            -23 -12 -25 -13 -50 hhcurveto
            -75 -20 30 45 hvcurveto
            190 12 rmoveto
            -179 226 rlineto
            20 13 25 14 46 hhcurveto
            72 23 -34 -42 hvcurveto
            575 257 rmoveto
            -880 -40 735 -109 -316 1 callgsubr
            158 -455 67 callsubr
          </CharString>
          <CharString index="116">
            -253 vlineto
            -38 callgsubr
            return
          </CharString>
          <CharString index="117">
            hlineto
            -3 callsubr
            return
          </CharString>
          <CharString index="118">
            vlineto
            -49 -25 -35 -73 -37 return
          </CharString>
          <CharString index="119">
            -90 45 -56 110 return
          </CharString>
          <CharString index="120">
            -42 -99 -30 callgsubr
            return
          </CharString>
          <CharString index="121">
            rmoveto
            93 callgsubr
            106 vlineto
            81 53 33 84 hvcurveto
            53 314 callgsubr
            -876 -40 551 hlineto
            -88 callsubr
            -53 299 callsubr
            67 -1 -64 11 -56 hhcurveto
            -227 -40 113 hlineto
            -102 callgsubr
            65 hlineto
            57 26 -5 -50 hvcurveto
            -131 vlineto
            -92 callsubr
          </CharString>
          <CharString index="122">
            hhcurveto
            -52 -40 -45 callgsubr
            23 34 67 return
          </CharString>
          <CharString index="123">
            -105 callgsubr
            -485 127 callgsubr
            return
          </CharString>
          <CharString index="124">
            rmoveto
            -76 callgsubr
            778 40 rmoveto
            -1080 -56 callsubr
            -92 45 92 310 callsubr
            590 -125 -286 -40 83 262 callgsubr
            -31 -25 3 6 -24 vhcurveto
            -43 vlineto
            -5 21 23 -3 36 238 callsubr
            197 -97 callgsubr
            158 -439 67 callsubr
          </CharString>
          <CharString index="125">
            rmoveto
            272 callgsubr
            -146 vlineto
            -45 -20 -35 -75 -26 -27 5 5 -22 vhcurveto
            return
          </CharString>
          <CharString index="126">
            247 callsubr
            55 vlineto
            81 53 33 84 hvcurveto
            104 175 callsubr
            -449 -254 rmoveto
            2 10 1 11 12 -72 callsubr
            274 hlineto
            -88 callsubr
            -104 24 callgsubr
            return
          </CharString>
          <CharString index="127">
            -95 -45 -42 -75 hvcurveto
            return
          </CharString>
          <CharString index="128">
            rmoveto
            -44 callsubr
            -103 callsubr
            hvcurveto
            -412 247 rmoveto
            -40 298 -99 -83 vlineto
            146 callgsubr
            -31 133 callgsubr
            112 callsubr
            -53 vlineto
            -54 -39 -25 -75 -51 -50 6 9 -36 vhcurveto
            -42 vlineto
            28 -6 31 -5 35 -3 -85 -151 rcurveline
            49 hlineto
            81 150 rlineto
            12 hlineto
            81 -150 rlineto
            49 hlineto
            -87 155 rlineto
            68 14 34 40 62 vvcurveto
            53 vlineto
            141 callsubr
            128 141 117 40 hlineto
            endchar
          </CharString>
          <CharString index="129">
            186 -36 callsubr
            return
          </CharString>
          <CharString index="130">
            rlineto
            51 43 39 33 78 vvcurveto
            36 138 callsubr
            -36 vlineto
            -78 34 -32 52 -43 vhcurveto
            -113 -94 66 -8 84 73 return
          </CharString>
          <CharString index="131">
            rmoveto
            142 95 40 -100 vlineto
            -17 33 -21 49 35 vvcurveto
            57 40 18 46 12 13 -1 -2 13 vhcurveto
            40 vlineto
            2 -14 -14 2 -14 hhcurveto
            -66 -61 -32 -84 -42 18 -41 19 -34 hvcurveto
            -287 -40 293 -100 334 callgsubr
            -6 133 callgsubr
            22 hlineto
            75 20 -29 -45 hvcurveto
            -42 vlineto
            -48 -32 -26 -75 -39 -29 2 6 -30 vhcurveto
            86 -42 -232 42 105 vlineto
            -6 28 32 -3 38 hhcurveto
            106 46 38 78 hvcurveto
            42 vlineto
            75 -45 41 -95 vhcurveto
            -22 hlineto
            -75 -20 29 45 hvcurveto
            6 98 callsubr
            endchar
          </CharString>
          <CharString index="132">
            -116 -47 callsubr
            186 97 vlineto
            23 20 -5 -21 hvcurveto
            -82 vlineto
            97 callgsubr
            vlineto
            endchar
          </CharString>
          <CharString index="133">
            125 28 callgsubr
            return
          </CharString>
          <CharString index="134">
            rmoveto
            299 97 vlineto
            226 callgsubr
            -91 vlineto
            -64 -30 -39 -79 vhcurveto
            178 -322 rmoveto
            -105 287 rlineto
            59 22 27 52 64 vvcurveto
            91 237 callsubr
            -147 -666 50 275 97 hlineto
            8 8 0 1 8 hvcurveto
            99 -276 rlineto
            endchar
          </CharString>
          <CharString index="135">
            -40 292 hlineto
            -105 callsubr
            return
          </CharString>
          <CharString index="136">
            -523 vlineto
            -8 -28 -38 -7 68 callgsubr
            109 40 return
          </CharString>
          <CharString index="137">
            -89 callsubr
            144 vlineto
            -10 31 24 -6 40 hhcurveto
            95 45 47 75 hvcurveto
            -63 callsubr
            93 40 -450 -40 312 hlineto
            -84 callgsubr
            -39 -26 7 9 -30 vhcurveto
            return
          </CharString>
          <CharString index="138">
            37 callgsubr
            vlineto
            endchar
          </CharString>
          <CharString index="139">
            vlineto
            -47 17 -30 37 -16 vhcurveto
            -38 -16 -19 -31 -46 vvcurveto
            return
          </CharString>
          <CharString index="140">
            -191 13 callgsubr
          </CharString>
          <CharString index="141">
            43 callsubr
            28 return
          </CharString>
          <CharString index="142">
            -55 -30 -15 -75 -75 -30 15 55 vhcurveto
            -42 -1 hlineto
            -84 52 -25 95 94 53 25 84 vhcurveto
            return
          </CharString>
          <CharString index="143">
            60 335 139 rmoveto
            -64 -31 -40 -79 -79 -31 40 64 vhcurveto
            62 vlineto
            64 31 44 79 79 31 -44 -64 vhcurveto
            -217 326 rmoveto
            64 28 40 79 79 28 -40 -64 vhcurveto
            -65 vlineto
            -64 -28 -44 -79 -79 -28 44 64 vhcurveto
            264 65 rmoveto
            86 -47 63 245 callsubr
            -47 -63 -86 vhcurveto
            -65 vlineto
            -62 25 -47 55 -21 vhcurveto
            -57 -22 -26 -47 -62 vvcurveto
            -62 vlineto
            -86 50 -63 242 callsubr
            50 63 86 vhcurveto
            62 vlineto
            62 -26 47 -57 22 vhcurveto
            55 21 25 47 62 vvcurveto
            endchar
          </CharString>
          <CharString index="144">
            -77 callsubr
            39 callsubr
          </CharString>
          <CharString index="145">
            -8 hlineto
            -123 -84 -37 -122 -1 hvcurveto
            -1 45 vlineto
            83 49 35 113 vhcurveto
            10 hlineto
            123 40 -48 -93 hvcurveto
            -46 -84 callsubr
            return
          </CharString>
          <CharString index="146">
            211 76 vlineto
            46 18 -7 -49 hvcurveto
            -77 vlineto
            -92 callsubr
          </CharString>
          <CharString index="147">
            11 callsubr
            -29 -34 callgsubr
            24 230 callsubr
            return
          </CharString>
          <CharString index="148">
            vvcurveto
            52 11 30 63 66 4 -31 -52 vhcurveto
            return
          </CharString>
          <CharString index="149">
            vlineto
            -45 -26 -31 91 callsubr
            40 43 75 hvcurveto
            return
          </CharString>
          <CharString index="150">
            -7 callgsubr
            67 18 -34 -43 vhcurveto
            100 callsubr
            vlineto
            43 23 34 67 return
          </CharString>
          <CharString index="151">
            -64 -30 -44 -79 -79 -30 44 64 vhcurveto
            return
          </CharString>
          <CharString index="152">
            208 callsubr
            128 callsubr
            116 vlineto
            45 12 25 70 vhcurveto
            82 hlineto
            return
          </CharString>
          <CharString index="153">
            rmoveto
            141 callsubr
            128 141 117 40 -460 -40 298 -99 -83 205 callgsubr
            -31 133 callgsubr
            112 callsubr
            -53 vlineto
            -54 -39 -25 -75 -51 -50 6 9 -36 vhcurveto
            -42 vlineto
            -9 39 44 -6 54 hhcurveto
            106 53 43 78 hvcurveto
            7 248 rmoveto
            -19 9 -14 24 126 callsubr
            vhcurveto
            endchar
          </CharString>
          <CharString index="154">
            hhcurveto
            49 41 10 4 9 hvcurveto
            116 callsubr
            return
          </CharString>
          <CharString index="155">
            121 callgsubr
            -34 hlineto
            57 -10 -39 34 -74 hhcurveto
            -47 -30 -31 callsubr
            -90 -40 -47 -75 hvcurveto
            -188 vlineto
            12 callsubr
            12 callgsubr
            vhcurveto
            -86 callgsubr
            188 -7 callgsubr
            185 callgsubr
            -128 45 128 72 callgsubr
            -63 vlineto
            -128 return
          </CharString>
          <CharString index="156">
            302 callgsubr
            157 51 callgsubr
            return
          </CharString>
          <CharString index="157">
            -23 callgsubr
            101 vlineto
            45 12 25 70 vhcurveto
            82 hlineto
            return
          </CharString>
          <CharString index="158">
            175 rmoveto
            -76 callgsubr
            return
          </CharString>
          <CharString index="159">
            5 callsubr
            -95 -51 -50 return
          </CharString>
          <CharString index="160">
            vlineto
            -35 callgsubr
            return
          </CharString>
          <CharString index="161">
            -15 callgsubr
            67 18 -34 -43 vhcurveto
            100 callsubr
            vlineto
            43 23 34 67 28 return
          </CharString>
          <CharString index="162">
            146 rmoveto
            119 callsubr
            -650 225 callsubr
            endchar
          </CharString>
          <CharString index="163">
            rmoveto
            35 -68 rlineto
            36 hlineto
            -48 105 rlineto
            -46 hlineto
            -48 -105 rlineto
            36 hlineto
            return
          </CharString>
          <CharString index="164">
            -50 callgsubr
            -128 hlineto
            -3 callgsubr
            return
          </CharString>
          <CharString index="165">
            45 -226 268 197 45 -197 263 return
          </CharString>
          <CharString index="166">
            hlineto
            11 callgsubr
            return
          </CharString>
          <CharString index="167">
            vlineto
            80 -25 45 -88 -88 -31 -44 -81 return
          </CharString>
          <CharString index="168">
            35 65 521 rmoveto
            -378 150 callgsubr
            128 vlineto
            92 -56 47 -91 -40 -41 -9 -16 -32 vhcurveto
            136 vlineto
            55 25 49 93 48 42 -8 -11 31 vhcurveto
            48 vlineto
            9 -28 -42 8 -51 hhcurveto
            -119 -49 -66 -84 hvcurveto
            260 -250 rmoveto
            -128 210 callgsubr
            192 vlineto
            17 29 42 12 41 hhcurveto
            63 35 -26 -67 hvcurveto
            endchar
          </CharString>
          <CharString index="169">
            129 callgsubr
            -130 95 -43 118 -3 vhcurveto
            -149 -90 rlineto
            -4 vlineto
            66 -10 161 108 rlineto
            41 vlineto
            -1 -14 -35 -1 -16 hhcurveto
            -105 -76 33 100 hvcurveto
            return
          </CharString>
          <CharString index="170">
            82 callsubr
            44 7 5 24 vhcurveto
            -97 45 604 100 return
          </CharString>
          <CharString index="171">
            -5 38 657 rmoveto
            -48 vlineto
            10 30 35 6 48 hhcurveto
            93 22 -37 -55 hvcurveto
            -69 vlineto
            -64 -22 -44 -79 vhcurveto
            -66 -45 66 hlineto
            79 26 -44 -64 hvcurveto
            -69 vlineto
            -57 -26 -36 -93 -48 -47 11 11 -30 vhcurveto
            -50 vlineto
            -10 28 46 -8 51 hhcurveto
            117 52 54 85 hvcurveto
            72 vlineto
            64 -25 43 -54 20 vhcurveto
            53 23 22 42 66 vvcurveto
            69 vlineto
            84 -48 54 -117 -51 -36 -6 -8 -26 vhcurveto
            endchar
          </CharString>
          <CharString index="172">
            vlineto
            -47 17 -30 37 -16 vhcurveto
            172 callgsubr
            return
          </CharString>
          <CharString index="173">
            rmoveto
            180 -376 hlineto
            -4 -15 -29 -6 14 callgsubr
            442 307 rmoveto
            40 -573 215 callgsubr
            447 vlineto
            8 26 40 288 callgsubr
            -43 -4 -7 -21 326 callsubr
          </CharString>
          <CharString index="174">
            -85 callsubr
            hlineto
            endchar
          </CharString>
          <CharString index="175">
            160 callgsubr
            -42 vlineto
            -55 -39 -29 -40 -33 vhcurveto
            -40 33 -39 29 55 vvcurveto
            return
          </CharString>
          <CharString index="176">
            126 callsubr
            -19 21 callgsubr
            hvcurveto
            return
          </CharString>
          <CharString index="177">
            rmoveto
            208 -220 rlineto
            -51 -11 -30 -29 212 callgsubr
            return
          </CharString>
          <CharString index="178">
            vlineto
            45 18 25 60 vhcurveto
            65 hlineto
            0 13 return
          </CharString>
          <CharString index="179">
            rmoveto
            -45 -18 -25 -60 -60 -18 8 callgsubr
            return
          </CharString>
          <CharString index="180">
            rmoveto
            -221 vlineto
            -312 -266 -1 -1 rlineto
            67 hlineto
            132 113 rlineto
            75 64 39 36 0 vvcurveto
            -164 43 -79 callsubr
            40 -581 -40 438 -125 -319 -40 113 vlineto
            -88 callsubr
            -112 40 callsubr
            112 -97 callgsubr
            endchar
          </CharString>
          <CharString index="181">
            vlineto
            -4 -9 -31 -10 -49 -58 callgsubr
            return
          </CharString>
          <CharString index="182">
            rmoveto
            10 -58 -40 -12 -55 27 -74 36 rcurveline
            -61 30 -70 -23 -72 vvcurveto
            -11 2 -10 0 vhcurveto
            37 hlineto
            -10 58 44 10 51 -25 74 -36 rcurveline
            62 -30 69 23 72 vvcurveto
            11 -2 10 0 vhcurveto
            return
          </CharString>
          <CharString index="183">
            304 callgsubr
            -73 -47 callgsubr
            return
          </CharString>
          <CharString index="184">
            rmoveto
            40 -809 -40 376 258 callgsubr
            -17 1 -15 3 -13 vhcurveto
            -9 -30 -38 -7 -39 18 callgsubr
            44 53 12 9 25 vhcurveto
            return
          </CharString>
          <CharString index="185">
            vlineto
            -79 57 -47 95 vhcurveto
            9 8 0 8 hhcurveto
            -171 -177 rlineto
            59 hlineto
            180 187 rlineto
            -127 42 168 callsubr
            return
          </CharString>
          <CharString index="186">
            295 callgsubr
            -79 -26 44 64 vhcurveto
            return
          </CharString>
          <CharString index="187">
            1 7 10 1 9 hhcurveto
            return
          </CharString>
          <CharString index="188">
            rmoveto
            11 -27 -41 10 -32 15 callsubr
            28 48 -10 -11 24 vhcurveto
            return
          </CharString>
          <CharString index="189">
            57 callsubr
            50 return
          </CharString>
          <CharString index="190">
            hlineto
            179 callgsubr
            -161 vlineto
            -76 callsubr
            return
          </CharString>
          <CharString index="191">
            vvcurveto
            -132 92 callgsubr
            return
          </CharString>
          <CharString index="192">
            75 -41 47 -90 -51 -36 -16 -27 -20 vhcurveto
            -32 callsubr
            -90 -40 -47 -75 hvcurveto
            -88 vlineto
            12 callsubr
            12 callgsubr
            vhcurveto
            -86 callgsubr
            88 -7 callgsubr
            67 18 -34 -43 vhcurveto
            -71 45 71 vlineto
            43 18 34 67 185 callgsubr
            -41 -7 vlineto
            -78 -40 -38 return
          </CharString>
          <CharString index="193">
            -228 -145 116 53 callsubr
            -30 4 -26 222 callgsubr
            20 36 -10 callsubr
            -116 -82 vlineto
            return
          </CharString>
          <CharString index="194">
            vlineto
            45 26 38 75 return
          </CharString>
          <CharString index="195">
            11 callgsubr
            -23 -17 -66 -3 vhcurveto
            63 -3 -52 22 -80 hhcurveto
            -167 hlineto
            179 callgsubr
            -181 vlineto
            -76 callsubr
            176 284 callgsubr
            55 43 -9 -41 hvcurveto
            -123 vlineto
            -92 callsubr
          </CharString>
          <CharString index="196">
            hhcurveto
            -25 callsubr
            hvcurveto
            199 callgsubr
          </CharString>
          <CharString index="197">
            hhcurveto
            -75 -29 289 callsubr
            11 8 0 -1 10 vhcurveto
            42 vlineto
            1 -9 -10 0 -10 326 callgsubr
            -182 vlineto
            -79 54 -46 95 return
          </CharString>
          <CharString index="198">
            -5 callgsubr
            106 return
          </CharString>
          <CharString index="199">
            -47 callsubr
            211 return
          </CharString>
          <CharString index="200">
            0 55 655 rmoveto
            -49 vlineto
            10 30 45 9 44 hhcurveto
            97 19 -35 -54 hvcurveto
            -57 vlineto
            -54 -12 -31 -45 -29 vhcurveto
            -74 -49 rlineto
            -67 -44 -47 -37 -95 vvcurveto
            -140 300 48 -250 93 vlineto
            68 28 25 64 42 vhcurveto
            74 49 61 40 17 37 1 77 rlinecurve
            57 vlineto
            84 -48 51 -118 -46 -48 -8 -8 -25 vhcurveto
            endchar
          </CharString>
          <CharString index="201">
            55 callgsubr
            -52 vlineto
            -102 77 -40 100 51 70 14 13 39 vhcurveto
            -25 35 46 -7 48 89 callsubr
          </CharString>
          <CharString index="202">
            68 338 666 -41 callgsubr
            return
          </CharString>
          <CharString index="203">
            -109 170 135 callgsubr
            return
          </CharString>
          <CharString index="204">
            -113 vlineto
            -4 callgsubr
            -182 vlineto
            return
          </CharString>
          <CharString index="205">
            vlineto
            45 20 28 75 vhcurveto
            return
          </CharString>
          <CharString index="206">
            hlineto
            76 callsubr
            return
          </CharString>
          <CharString index="207">
            -151 45 151 return
          </CharString>
          <CharString index="208">
            59 40 -59 hlineto
            0 callgsubr
            208 -7 callgsubr
            185 callgsubr
            -148 45 148 72 callgsubr
            return
          </CharString>
          <CharString index="209">
            vlineto
            20 callsubr
            return
          </CharString>
          <CharString index="210">
            -62 -46 -35 -67 hvcurveto
            -9 vlineto
            -38 9 -31 41 -13 vhcurveto
            -41 -11 -14 -33 -37 vvcurveto
            -9 vlineto
            -88 54 -38 107 96 62 32 117 3 vhcurveto
            11 hlineto
            40 24 3 7 29 hvcurveto
            -24 callsubr
            184 130 callsubr
          </CharString>
          <CharString index="211">
            rlineto
            14 hlineto
            39 19 -12 -28 -28 -24 -12 -32 -17 -17 3 5 -11 hvcurveto
            -33 vlineto
            -5 13 20 -2 16 hhcurveto
            47 39 24 48 41 -28 24 -42 2 hvcurveto
            return
          </CharString>
          <CharString index="212">
            80 callsubr
            30 return
          </CharString>
          <CharString index="213">
            23 66 666 rmoveto
            -337 vlineto
            8 73 26 4 41 hhcurveto
            78 21 -36 -65 hvcurveto
            -107 vlineto
            -55 -29 -37 -93 -48 -43 13 12 -30 vhcurveto
            -51 vlineto
            -10 28 42 -10 51 hhcurveto
            117 55 54 84 hvcurveto
            107 vlineto
            87 -40 62 -109 -27 -30 -2 -4 -33 vhcurveto
            237 225 46 vlineto
            endchar
          </CharString>
          <CharString index="214">
            vlineto
            75 -40 42 -90 327 callgsubr
            vhcurveto
            return
          </CharString>
          <CharString index="215">
            -75 51 -46 95 return
          </CharString>
          <CharString index="216">
            -126 346 267 rmoveto
            149 callgsubr
            -165 390 rmoveto
            165 40 -366 -40 156 -247 hlineto
            -95 callgsubr
            return
          </CharString>
          <CharString index="217">
            139 208 callsubr
            return
          </CharString>
          <CharString index="218">
            108 callsubr
            49 31 10 4 9 vhcurveto
            -88 42 -79 callsubr
            return
          </CharString>
          <CharString index="219">
            17 hlineto
            75 20 -29 -45 hvcurveto
            return
          </CharString>
          <CharString index="220">
            vlineto
            -41 -14 -34 -61 -6 return
          </CharString>
          <CharString index="221">
            50 65 523 rmoveto
            -380 150 callgsubr
            380 173 callsubr
            -380 210 callgsubr
            380 229 callgsubr
          </CharString>
          <CharString index="222">
            rmoveto
            50 -8 25 0 vhcurveto
            158 -439 -85 callsubr
            40 -580 -40 435 171 callsubr
            endchar
          </CharString>
          <CharString index="223">
            -88 -85 callsubr
            return
          </CharString>
          <CharString index="224">
            50 65 420 -66 callgsubr
            return
          </CharString>
          <CharString index="225">
            rmoveto
            55 -105 rlineto
            37 hlineto
            -37 105 rlineto
            endchar
          </CharString>
          <CharString index="226">
            12 callsubr
            12 callgsubr
            vhcurveto
            -89 callgsubr
            40 return
          </CharString>
          <CharString index="227">
            123 callsubr
            -432 50 432 vlineto
            return
          </CharString>
          <CharString index="228">
            112 callgsubr
            56 60 callsubr
            return
          </CharString>
          <CharString index="229">
            -86 49 -67 110 278 callsubr
            vhcurveto
            return
          </CharString>
          <CharString index="230">
            18 38 37 12 42 hhcurveto
            53 33 -27 -60 hvcurveto
            return
          </CharString>
          <CharString index="231">
            vlineto
            -75 45 -47 95 95 45 47 75 vhcurveto
            return
          </CharString>
          <CharString index="232">
            20 callsubr
            -265 290 callgsubr
            55 vlineto
            78 -48 38 -62 -29 -20 -8 0 vhcurveto
            -42 vlineto
            0 15 8 30 251 callgsubr
            return
          </CharString>
          <CharString index="233">
            24 9 14 19 19 191 callsubr
            -19 return
          </CharString>
          <CharString index="234">
            -359 vlineto
            61 callgsubr
            return
          </CharString>
          <CharString index="235">
            -429 -23 callgsubr
            return
          </CharString>
          <CharString index="236">
            68 33 13 239 callgsubr
            -48 -35 -12 -28 -19 hvcurveto
            27 -19 -34 13 -48 hhcurveto
            -1 hlineto
            -79 -40 -37 -75 hvcurveto
            -48 45 48 vlineto
            45 15 25 59 vhcurveto
            1 hlineto
            60 15 -25 -45 hvcurveto
            -117 -84 callsubr
            return
          </CharString>
          <CharString index="237">
            -32 callgsubr
            endchar
          </CharString>
          <CharString index="238">
            -40 77 -359 150 callsubr
            return
          </CharString>
          <CharString index="239">
            291 callsubr
            -78 -47 callgsubr
            -31 278 callgsubr
            14 13 1 1 12 vhcurveto
            -151 -135 rlineto
            66 hlineto
            161 148 rlineto
            0 vlineto
            -100 -23 callsubr
          </CharString>
          <CharString index="240">
            -147 139 callsubr
          </CharString>
          <CharString index="241">
            -40 104 hlineto
            291 callsubr
            -78 -47 callgsubr
            -51 278 callgsubr
            return
          </CharString>
          <CharString index="242">
            45 58 vlineto
            55 32 35 85 39 33 -5 -10 31 vhcurveto
            return
          </CharString>
          <CharString index="243">
            -47 -42 -75 hvcurveto
            return
          </CharString>
          <CharString index="244">
            -123 vlineto
            -44 19 -33 34 -20 vhcurveto
            -33 -20 -17 -35 -45 vvcurveto
            -39 vlineto
            -78 46 -47 98 98 42 47 78 vhcurveto
            270 -42 -97 vlineto
            -4 -16 -38 -8 -43 hhcurveto
            -75 -28 30 45 hvcurveto
            123 130 callsubr
          </CharString>
          <CharString index="245">
            vlineto
            143 callsubr
            return
          </CharString>
          <CharString index="246">
            -30 callsubr
            endchar
          </CharString>
          <CharString index="247">
            315 callgsubr
            55 -5 -40 33 -78 hhcurveto
            return
          </CharString>
          <CharString index="248">
            75 -45 41 -95 vhcurveto
            -17 hlineto
            -75 -20 29 45 hvcurveto
            31 98 callsubr
            return
          </CharString>
          <CharString index="249">
            61 callgsubr
            359 return
          </CharString>
          <CharString index="250">
            -35 callgsubr
            vhcurveto
            return
          </CharString>
          <CharString index="251">
            vlineto
            45 25 35 75 return
          </CharString>
          <CharString index="252">
            rmoveto
            -109 170 -65 callsubr
            -96 324 callsubr
          </CharString>
          <CharString index="253">
            rmoveto
            -99 callsubr
            -423 -274 50 callsubr
            return
          </CharString>
          <CharString index="254">
            159 vlineto
            110 49 64 86 hvcurveto
            366 237 callsubr
            return
          </CharString>
          <CharString index="255">
            45 22 30 75 10 16 -1 -1 6 vhcurveto
            41 vlineto
            1 -4 -16 2 -12 hhcurveto
            return
          </CharString>
          <CharString index="256">
            -190 75 563 rmoveto
            -563 50 563 vlineto
            return
          </CharString>
          <CharString index="257">
            hlineto
            142 callsubr
            return
          </CharString>
          <CharString index="258">
            vlineto
            -274 -280 rlineto
            62 hlineto
            146 149 return
          </CharString>
          <CharString index="259">
            vlineto
            47 9 28 0 vhcurveto
            return
          </CharString>
          <CharString index="260">
            vlineto
            8 -49 -46 6 -44 -14 callgsubr
            return
          </CharString>
          <CharString index="261">
            -90 callsubr
            452 -80 callsubr
            -187 -37 callgsubr
          </CharString>
          <CharString index="262">
            72 callsubr
            161 71 callsubr
            -8 -47 vvcurveto
            return
          </CharString>
          <CharString index="263">
            -67 242 callsubr
            return
          </CharString>
          <CharString index="264">
            -31 callsubr
            -90 -40 -47 -75 hvcurveto
            181 callsubr
            vhcurveto
            return
          </CharString>
          <CharString index="265">
            -217 -473 rlineto
            -45 268 45 -221 vlineto
            222 473 rlineto
            return
          </CharString>
          <CharString index="266">
            108 callsubr
            40 29 6 9 23 vhcurveto
            return
          </CharString>
          <CharString index="267">
            -113 hlineto
            5 callsubr
            return
          </CharString>
          <CharString index="268">
            144 callsubr
            39 return
          </CharString>
          <CharString index="269">
            -146 -52 callgsubr
          </CharString>
          <CharString index="270">
            hlineto
            -429 vmoveto
            -99 callgsubr
            return
          </CharString>
          <CharString index="271">
            vlineto
            45 -16 35 -34 21 vhcurveto
            34 21 16 35 45 vvcurveto
            return
          </CharString>
          <CharString index="272">
            -11 -33 -25 -4 277 callgsubr
            return
          </CharString>
          <CharString index="273">
            -100 -70 102 callsubr
            return
          </CharString>
          <CharString index="274">
            rmoveto
            29 callsubr
            return
          </CharString>
          <CharString index="275">
            238 -42 -69 -30 callgsubr
            return
          </CharString>
          <CharString index="276">
            -73 -18 29 45 hvcurveto
            300 callsubr
            141 141 return
          </CharString>
          <CharString index="277">
            383 rmoveto
            -268 vlineto
            -62 callgsubr
            40 return
          </CharString>
          <CharString index="278">
            -125 -316 193 callgsubr
            return
          </CharString>
          <CharString index="279">
            131 145 -143 vlineto
            191 callgsubr
            10 2 3 rlinecurve
            0 -3 -57 -85 vvcurveto
            -36 -23 callsubr
          </CharString>
          <CharString index="280">
            vlineto
            86 -45 67 245 callsubr
            -45 -67 -86 vhcurveto
            260 hmoveto
            return
          </CharString>
          <CharString index="281">
            vlineto
            69 -38 45 -80 7 vhcurveto
            97 vlineto
            endchar
          </CharString>
          <CharString index="282">
            182 callgsubr
            hlineto
            return
          </CharString>
          <CharString index="283">
            vhcurveto
            75 callgsubr
          </CharString>
          <CharString index="284">
            136 vlineto
            280 callsubr
            return
          </CharString>
          <CharString index="285">
            8 -27 -31 7 -42 hhcurveto
            return
          </CharString>
          <CharString index="286">
            266 vlineto
            63 callsubr
            vlineto
            endchar
          </CharString>
          <CharString index="287">
            rmoveto
            60 callgsubr
            return
          </CharString>
          <CharString index="288">
            -208 vlineto
            12 callsubr
            return
          </CharString>
          <CharString index="289">
            rmoveto
            -10 -1 -8 -2 -8 vhcurveto
            -181 211 rlineto
            184 hlineto
            -193 -51 rmoveto
            167 -195 rlineto
            -13 -17 -23 -5 -25 hhcurveto
            -6 hlineto
            -74 -22 34 45 hvcurveto
            return
          </CharString>
          <CharString index="290">
            131 hlineto
            143 callsubr
            -6 1 -6 -6 vvcurveto
            45 hlineto
            6 -1 7 5 307 callsubr
            return
          </CharString>
          <CharString index="291">
            -121 -183 121 -183 rlineto
            53 hlineto
            -122 183 122 183 rlineto
            return
          </CharString>
          <CharString index="292">
            51 32 7 9 30 return
          </CharString>
          <CharString index="293">
            vlineto
            -45 -15 -30 -70 -70 -15 30 45 vhcurveto
            218 239 rmoveto
            268 callgsubr
            return
          </CharString>
          <CharString index="294">
            -99 -83 vlineto
            146 callgsubr
            228 callgsubr
            return
          </CharString>
          <CharString index="295">
            hlineto
            -92 callsubr
          </CharString>
          <CharString index="296">
            -448 217 callsubr
            return
          </CharString>
          <CharString index="297">
            vvcurveto
            -38 vlineto
            -102 53 -38 132 132 52 37 103 vhcurveto
            return
          </CharString>
          <CharString index="298">
            -9 14 -24 -24 -9 -14 return
          </CharString>
          <CharString index="299" raw="1">
            f74907b8 0b  
          </CharString>
          <CharString index="300">
            29 337 666 rmoveto
            -145 -336 151 -330 rlineto
            56 hlineto
            -152 332 145 334 rlineto
            -317 hmoveto
            -666 50 666 vlineto
            return
          </CharString>
          <CharString index="301">
            262 callsubr
            133 141 138 return
          </CharString>
          <CharString index="302">
            32 vlineto
            121 callsubr
            return
          </CharString>
          <CharString index="303">
            -9 -30 -43 -8 -42 hhcurveto
            -93 -26 34 55 hvcurveto
            return
          </CharString>
          <CharString index="304">
            vlineto
            240 callsubr
            -43 245 callgsubr
            return
          </CharString>
          <CharString index="305">
            462 338 callgsubr
            return
          </CharString>
          <CharString index="306">
            vlineto
            -474 vmoveto
            -99 callsubr
            145 195 rmoveto
            return
          </CharString>
          <CharString index="307">
            hlineto
            -474 vmoveto
            -99 callsubr
            145 195 rmoveto
            return
          </CharString>
          <CharString index="308">
            rmoveto
            -40 315 -113 vlineto
            5 callsubr
            return
          </CharString>
          <CharString index="309">
            151 callsubr
            rlineto
            return
          </CharString>
          <CharString index="310">
            5 -31 103 callgsubr
            -5 return
          </CharString>
          <CharString index="311">
            hhcurveto
            -80 -22 39 45 hvcurveto
            return
          </CharString>
          <CharString index="312">
            190 -209 -83 callsubr
            209 88 40 return
          </CharString>
          <CharString index="313">
            -8 callsubr
            endchar
          </CharString>
          <CharString index="314">
            rlineto
            48 -17 -19 70 callgsubr
            27 9 -20 -29 12 hvcurveto
            55 -139 rlineto
            return
          </CharString>
          <CharString index="315">
            -106 callsubr
            -491 return
          </CharString>
          <CharString index="316">
            rmoveto
            -40 206 vlineto
            -88 callsubr
            return
          </CharString>
          <CharString index="317">
            rmoveto
            236 callgsubr
            return
          </CharString>
          <CharString index="318">
            -82 vlineto
            17 callgsubr
            return
          </CharString>
          <CharString index="319">
            -82 hlineto
            17 callgsubr
            return
          </CharString>
          <CharString index="320">
            rmoveto
            -168 -311 rlineto
            -37 191 -104 38 104 51 37 -51 311 vlineto
            -38 -311 rmoveto
            -151 hlineto
            151 281 rlineto
            return
          </CharString>
          <CharString index="321">
            -36 callsubr
            145 192 rmoveto
            return
          </CharString>
          <CharString index="322">
            -45 -28 -30 -75 -75 -22 30 45 vhcurveto
            176 vlineto
            148 callsubr
            return
          </CharString>
          <CharString index="323">
            -315 -666 rlineto
            42 hlineto
            315 666 rlineto
            return
          </CharString>
          <CharString index="324">
            vlineto
            -6 -20 -28 -4 -30 hhcurveto
            -70 -22 30 45 hvcurveto
            return
          </CharString>
          <CharString index="325">
            4 -9 -31 10 -49 hhcurveto
            return
          </CharString>
          <CharString index="326">
            -120 -43 37 103 hvcurveto
            return
          </CharString>
          <CharString index="327">
            hhcurveto
            80 43 37 75 hvcurveto
            return
          </CharString>
          <CharString index="328">
            rmoveto
            -190 145 rlineto
            return
          </CharString>
          <CharString index="329">
            75 264 callgsubr
            return
          </CharString>
          <CharString index="330">
            -42 -30 -8 -15 -21 hvcurveto
            46 -13 -35 27 -66 hhcurveto
            -47 -30 -31 callsubr
            -90 -40 -47 -75 hvcurveto
            return
          </CharString>
          <CharString index="331">
            vlineto
            -37 callsubr
            return
          </CharString>
          <CharString index="332">
            -40 505 244 callgsubr
            return
          </CharString>
          <CharString index="333">
            62 10 33 0 vhcurveto
            return
          </CharString>
          <CharString index="334">
            rmoveto
            268 callgsubr
            -34 -34 7 9 -27 vhcurveto
            return
          </CharString>
          <CharString index="335">
            -81 26 563 250 callgsubr
            return
          </CharString>
          <CharString index="336">
            47 58 vvcurveto
            58 33 23 53 vhcurveto
            return
          </CharString>
          <CharString index="337">
            -5 45 238 callsubr
            return
          </CharString>
          <CharString index="338">
            28 rmoveto
            -48 -20 -35 -78 -78 -21 35 48 vhcurveto
            39 vlineto
            45 22 35 75 vhcurveto
            0 3 vlineto
            45 32 8 6 20 hvcurveto
            return
          </CharString>
          <CharString index="339">
            vlineto
            -84 52 -51 117 44 43 7 9 28 vhcurveto
            47 vlineto
            196 callsubr
            endchar
          </CharString>
          <CharString index="340">
            114 callgsubr
            -115 342 callsubr
            120 vlineto
            45 18 25 60 vhcurveto
            endchar
          </CharString>
          <CharString index="341">
            -40 77 -360 vlineto
            -35 callsubr
            return
          </CharString>
          <CharString index="342">
            371 644 rmoveto
            -391 -40 391 hlineto
            return
          </CharString>
          <CharString index="343">
            491 rmoveto
            5 callsubr
            return
          </CharString>
          <CharString index="344">
            vlineto
            178 callgsubr
            return
          </CharString>
          <CharString index="345">
            hhcurveto
            95 48 48 78 hvcurveto
            return
          </CharString>
          <CharString index="346">
            hhcurveto
            -84 -50 25 77 hvcurveto
            return
          </CharString>
          <CharString index="347">
            69 -27 49 -100 -28 return
          </CharString>
          <CharString index="348">
            6 6 0 5 hhcurveto
            return
          </CharString>
          <CharString index="349">
            110 110 return
          </CharString>
          <CharString index="350">
            387 rmoveto
            259 callsubr
            return
          </CharString>
          <CharString index="351">
            rmoveto
            -341 -137 rlineto
            -62 vlineto
            341 -136 rlineto
            45 vlineto
            -306 122 306 123 rlineto
            endchar
          </CharString>
          <CharString index="352">
            -110 -110 return
          </CharString>
          <CharString index="353">
            108 callsubr
            vhcurveto
            241 callsubr
            -172 -199 rlineto
            56 hlineto
            178 210 rlineto
            -187 43 return
          </CharString>
          <CharString index="354">
            139 rmoveto
            93 callgsubr
            return
          </CharString>
          <CharString index="355">
            -58 135 callsubr
            return
          </CharString>
          <CharString index="356">
            258 vlineto
            45 return
          </CharString>
          <CharString index="357">
            rmoveto
            -45 252 vlineto
            159 callgsubr
            45 vlineto
            return
          </CharString>
          <CharString index="358">
            128 callgsubr
            endchar
          </CharString>
          <CharString index="359">
            144 callsubr
            vhcurveto
            return
          </CharString>
          <CharString index="360">
            90 -144 rlineto
            52 hlineto
            return
          </CharString>
          <CharString index="361">
            vlineto
            45 21 30 76 vhcurveto
            return
          </CharString>
          <CharString index="362">
            -80 -7 -37 -46 -68 vvcurveto
            return
          </CharString>
          <CharString index="363">
            282 callsubr
            49 20 18 65 hvcurveto
            return
          </CharString>
          <CharString index="364">
            11 -27 -41 10 -5 callsubr
            -90 -40 -47 -75 hvcurveto
            return
          </CharString>
          <CharString index="365">
            148 callsubr
            -95 136 callsubr
            return
          </CharString>
          <CharString index="366">
            -101 callgsubr
            -90 136 callsubr
            return
          </CharString>
          <CharString index="367">
            rmoveto
            -666 276 58 callsubr
            226 45 vlineto
            endchar
          </CharString>
          <CharString index="368">
            109 hlineto
            226 callgsubr
            -268 150 rmoveto
            return
          </CharString>
          <CharString index="369">
            -73 1 -19 28 45 vvcurveto
            300 callsubr
            return
          </CharString>
          <CharString index="370">
            -95 -50 -47 -75 hvcurveto
            return
          </CharString>
          <CharString index="371">
            rmoveto
            141 104 40 return
          </CharString>
          <CharString index="372">
            38 18 26 65 vhcurveto
            18 35 -18 hlineto
            -64 1 -13 25 38 vvcurveto
            9 vlineto
            48 24 16 41 vhcurveto
            return
          </CharString>
          <CharString index="373">
            -45 vlineto
            306 -123 -306 -122 rlineto
            -45 vlineto
            341 136 rlineto
            62 vlineto
            endchar
          </CharString>
          <CharString index="374">
            vlineto
            -42 -4 -32 -64 -18 -16 4 0 vhcurveto
            -40 vlineto
            0 13 -5 22 86 25 45 70 vhcurveto
            return
          </CharString>
          <CharString index="375">
            112 callsubr
            -43 vlineto
            -54 -39 -25 -75 -50 -46 6 11 -38 vhcurveto
            -45 vlineto
            return
          </CharString>
          <CharString index="376">
            -45 16 -35 34 -21 vhcurveto
            -34 -21 -16 -35 -45 vvcurveto
            return
          </CharString>
          <CharString index="377">
            -40 77 -363 vlineto
            339 callsubr
            return
          </CharString>
          <CharString index="378">
            337 rmoveto
            -147 hlineto
            -88 callgsubr
            return
          </CharString>
          <CharString index="379">
            44 69 rmoveto
            -40 -193 rlineto
            32 hlineto
            19 42 42 94 31 vvcurveto
            18 -13 8 -15 vhcurveto
            return
          </CharString>
          <CharString index="380">
            vmoveto
            -19 9 -14 24 126 callsubr
            vhcurveto
            endchar
          </CharString>
          <CharString index="381">
            -182 -33 callsubr
            40 return
          </CharString>
          <CharString index="382">
            -5 -17 -48 -10 333 callsubr
            return
          </CharString>
          <CharString index="383">
            rmoveto
            -713 50 713 vlineto
            return
          </CharString>
          <CharString index="384">
            hhcurveto
            -28 -43 346 callgsubr
            return
          </CharString>
          <CharString index="385">
            110 49 67 86 return
          </CharString>
          <CharString index="386">
            72 20 -30 -44 hvcurveto
            return
          </CharString>
          <CharString index="387">
            45 15 30 70 return
          </CharString>
          <CharString index="388">
            rmoveto
            142 105 40 -440 105 callgsubr
            return
          </CharString>
          <CharString index="389">
            105 47 31 85 hvcurveto
            202 callgsubr
            return
          </CharString>
          <CharString index="390">
            -53 callgsubr
            vlineto
            endchar
          </CharString>
          <CharString index="391">
            -97 vlineto
            255 callsubr
            return
          </CharString>
          <CharString index="392">
            -63 36 -43 63 -14 vhcurveto
            -84 -1 -31 -30 -87 hhcurveto
            -88 -31 22 63 hvcurveto
            return
          </CharString>
          <CharString index="393">
            150 -45 -150 -148 -40 148 100 callsubr
            148 return
          </CharString>
          <CharString index="394">
            -38 -14 -26 -22 hvcurveto
            25 -19 -33 15 -55 54 callgsubr
            return
          </CharString>
          <CharString index="395">
            rmoveto
            -46 hlineto
            -48 -105 rlineto
            36 hlineto
            35 68 35 -68 rlineto
            36 hlineto
            endchar
          </CharString>
          <CharString index="396">
            33 50 hvcurveto
            181 87 callsubr
            return
          </CharString>
          <CharString index="397">
            -64 -30 -41 -79 vhcurveto
            return
          </CharString>
          <CharString index="398">
            0 -8 -25 -50 vvcurveto
            return
          </CharString>
          <CharString index="399">
            102 -100 rlineto
            -36 36 37 -8 35 hhcurveto
            78 hlineto
            85 30 33 73 73 return
          </CharString>
          <CharString index="400">
            -48 160 rlineto
            322 callgsubr
            return
          </CharString>
          <CharString index="401">
            rmoveto
            -67 callgsubr
            return
          </CharString>
          <CharString index="402">
            -45 156 callgsubr
            return
          </CharString>
          <CharString index="403">
            244 rmoveto
            216 callsubr
            return
          </CharString>
          <CharString index="404">
            58 callsubr
            hlineto
            endchar
          </CharString>
          <CharString index="405">
            vlineto
            240 callgsubr
            164 return
          </CharString>
          <CharString index="406">
            vlineto
            -55 -23 -17 -69 -3 vhcurveto
            return
          </CharString>
          <CharString index="407">
            7 98 callsubr
            return
          </CharString>
          <CharString index="408">
            4 hlineto
            279 callsubr
            return
          </CharString>
          <CharString index="409">
            hhcurveto
            0 callgsubr
            return
          </CharString>
          <CharString index="410">
            vlineto
            44 13 31 66 return
          </CharString>
          <CharString index="411">
            11 -31 vhcurveto
            -48 vlineto
            return
          </CharString>
          <CharString index="412">
            515 387 210 callsubr
            return
          </CharString>
          <CharString index="413">
            74 callsubr
            190 return
          </CharString>
          <CharString index="414">
            -10 callsubr
            -131 -82 vlineto
            return
          </CharString>
          <CharString index="415">
            vlineto
            -71 38 -57 111 vhcurveto
            42 vlineto
            -90 -14 44 42 hvcurveto
            return
          </CharString>
          <CharString index="416">
            216 callsubr
            endchar
          </CharString>
          <CharString index="417">
            197 callsubr
            116 return
          </CharString>
          <CharString index="418">
            -128 204 callgsubr
            -191 vlineto
            return
          </CharString>
          <CharString index="419">
            -61 -47 callsubr
            131 return
          </CharString>
          <CharString index="420">
            -75 -40 5 55 hvcurveto
            -42 -1 hlineto
            -84 62 -15 95 vhcurveto
            return
          </CharString>
          <CharString index="421">
            vlineto
            -12 -49 -52 -6 -52 177 callgsubr
            return
          </CharString>
          <CharString index="422">
            -152 328 644 rmoveto
            -358 -40 358 hlineto
            return
          </CharString>
          <CharString index="423">
            -282 hhcurveto
            -191 -140 -29 -162 hvcurveto
            endchar
          </CharString>
          <CharString index="424">
            205 callgsubr
            -7 vlineto
            return
          </CharString>
          <CharString index="425">
            rlineto
            59 hlineto
            156 139 rlineto
            return
          </CharString>
          <CharString index="426">
            hlineto
            12 -19 -27 6 -36 hhcurveto
            -28 return
          </CharString>
          <CharString index="427">
            60 37 6 10 24 return
          </CharString>
          <CharString index="428">
            0 40 -4 58 vhcurveto
            40 vlineto
            -58 -40 -4 0 hvcurveto
            return
          </CharString>
          <CharString index="429">
            vlineto
            275 callsubr
            return
          </CharString>
          <CharString index="430">
            -211 72 callsubr
            return
          </CharString>
          <CharString index="431">
            -80 callgsubr
            hlineto
            endchar
          </CharString>
          <CharString index="432">
            rmoveto
            290 callsubr
            return
          </CharString>
          <CharString index="433">
            vhcurveto
            116 vlineto
            endchar
          </CharString>
          <CharString index="434">
            hlineto
            55 105 rlineto
            return
          </CharString>
          <CharString index="435">
            -2 -4 30 vhcurveto
            return
          </CharString>
          <CharString index="436">
            rmoveto
            -666 259 45 -209 621 vlineto
            return
          </CharString>
          <CharString index="437">
            284 callsubr
            -269 vlineto
            return
          </CharString>
          <CharString index="438">
            -78 hlineto
            -23 -22 4 32 -34 hvcurveto
            -66 66 rlineto
            return
          </CharString>
          <CharString index="439">
            40 -534 -40 101 vlineto
            0 -10 -25 -50 vvcurveto
            return
          </CharString>
          <CharString index="440">
            -50 239 callsubr
            return
          </CharString>
          <CharString index="441">
            rmoveto
            178 callsubr
            return
          </CharString>
          <CharString index="442">
            rmoveto
            341 40 -341 hlineto
            return
          </CharString>
          <CharString index="443">
            59 hhcurveto
            90 37 46 75 hvcurveto
            return
          </CharString>
          <CharString index="444">
            vhcurveto
            -79 -85 callsubr
            40 return
          </CharString>
          <CharString index="445">
            vlineto
            186 callgsubr
            return
          </CharString>
          <CharString index="446">
            -75 47 -51 100 return
          </CharString>
          <CharString index="447">
            169 44 rlineto
            40 vlineto
            -169 -44 rlineto
            return
          </CharString>
          <CharString index="448">
            vlineto
            68 33 13 239 callgsubr
            return
          </CharString>
          <CharString index="449">
            vlineto
            -45 -18 -25 -60 -60 -18 8 callgsubr
            return
          </CharString>
          <CharString index="450">
            -75 50 -42 95 51 48 10 10 22 vhcurveto
            return
          </CharString>
          <CharString index="451">
            -27 -18 -14 -32 -45 vvcurveto
            -77 41 -32 75 return
          </CharString>
          <CharString index="452">
            vhcurveto
            42 vlineto
            19 return
          </CharString>
        <CharString name=".notdef">
          360 180 hmoveto
          390 701 -390 hlineto
          54 -50 rmoveto
          282 -601 -282 hlineto
          endchar
        </CharString>
        <CharString name="A">
          34 127 240 -56 callgsubr
        </CharString>
        <CharString name="AE">
          252 176 240 rmoveto
          178 385 rlineto
          -385 vlineto
          276 381 rmoveto
          45 -307 vlineto
          -313 -666 rlineto
          55 hlineto
          90 195 rlineto
          199 -195 276 297 callsubr
        </CharString>
        <CharString name="Aacute">
          34 287 813 rmoveto
          -55 hlineto
          -37 -105 rlineto
          37 hlineto
          -105 -468 -56 callgsubr
        </CharString>
        <CharString name="Abreve">
          34 276 813 50 callgsubr
          -192 -573 -56 callgsubr
        </CharString>
        <CharString name="Acircumflex">
          34 213 776 56 callsubr
          -51 -468 -56 callgsubr
        </CharString>
        <CharString name="Adieresis">
          34 274 726 rmoveto
          69 callsubr
          -125 hmoveto
          69 callsubr
          -22 -486 -56 callgsubr
        </CharString>
        <CharString name="Agrave">
          34 224 708 rmoveto
          -37 105 rlineto
          -55 hlineto
          55 -105 rlineto
          -60 -468 -56 callgsubr
        </CharString>
        <CharString name="Amacron">
          34 315 780 rmoveto
          -210 -39 210 hlineto
          -188 -501 -56 callgsubr
        </CharString>
        <CharString name="Aogonek">
          34 127 240 rmoveto
          85 369 85 -369 rlineto
          107 -240 rmoveto
          -156 666 rlineto
          -72 hlineto
          -156 -666 rlineto
          52 hlineto
          45 195 rlineto
          190 hlineto
          45 -195 rlineto
          18 hlineto
          4 callsubr
          endchar
        </CharString>
        <CharString name="Aring">
          34 212 798 rmoveto
          23 14 -15 -22 -23 -14 -15 -23 -23 -14 15 23 22 14 15 23 hvcurveto
          -108 vmoveto
          47 25 32 39 39 -25 31 -47 -46 -26 -31 -39 -39 26 -32 46 hvcurveto
          -85 -450 -56 callgsubr
        </CharString>
        <CharString name="Atilde">
          34 144 732 rmoveto
          19 7 11 16 vhcurveto
          35 28 -41 46 hhcurveto
          38 22 24 42 hvcurveto
          16 -43 -13 vlineto
          -19 -5 -11 -17 vhcurveto
          1 -29 -33 40 -46 hhcurveto
          -44 -18 -30 -36 hvcurveto
          -16 43 vlineto
          -17 -479 -56 callgsubr
        </CharString>
        <CharString name="B">
          71 346 318 callgsubr
          -112 267 112 hlineto
          226 callgsubr
          -115 414 rmoveto
          226 callgsubr
          -54 vlineto
          290 callsubr
          -106 264 hlineto
          265 -105 rmoveto
          178 callgsubr
          -156 -666 162 hlineto
          110 49 64 86 hvcurveto
          57 vlineto
          63 -26 46 -55 20 vhcurveto
          51 21 24 44 61 vvcurveto
          endchar
        </CharString>
        <CharString name="C">
          -1 65 536 rmoveto
          -406 vlineto
          -84 52 -51 117 44 43 7 9 28 vhcurveto
          47 vlineto
          196 callsubr
          406 vlineto
          69 callgsubr
          endchar
        </CharString>
        <CharString name="CR">
          -390 endchar
        </CharString>
        <CharString name="Cacute">
          -1 238 813 -8 callsubr
          -228 -277 rmoveto
          -406 vlineto
          -84 52 -51 117 44 43 7 9 28 vhcurveto
          47 vlineto
          196 callsubr
          406 vlineto
          69 callgsubr
          endchar
        </CharString>
        <CharString name="Ccaron">
          -1 199 708 -19 callsubr
          -36 -277 rmoveto
          69 callgsubr
          -406 232 callsubr
        </CharString>
        <CharString name="Ccedilla">
          -1 349 58 rmoveto
          196 callsubr
          406 vlineto
          69 callgsubr
          -406 vlineto
          -76 43 -50 96 -8 vhcurveto
          -13 -63 104 callsubr
          8 35 rlineto
          43 43 7 9 28 hvcurveto
          endchar
        </CharString>
        <CharString name="D">
          68 222 callsubr
          147 callsubr
          109 -150 rmoveto
          -366 vlineto
          290 callsubr
          -109 576 109 hlineto
          226 callgsubr
          endchar
        </CharString>
        <CharString name="Dcaron">
          68 200 708 -19 callsubr
          191 -663 325 callsubr
          -109 576 261 callsubr
          -666 147 callsubr
          endchar
        </CharString>
        <CharString name="Dcroat">
          68 343 318 callgsubr
          -109 266 113 45 -113 265 261 callsubr
          -310 -60 -45 60 -311 147 callsubr
          endchar
        </CharString>
        <CharString name="E">
          1 75 666 260 callsubr
        </CharString>
        <CharString name="Eacute">
          1 234 813 -8 callsubr
          -214 -147 260 callsubr
        </CharString>
        <CharString name="Ecaron">
          1 193 708 -19 callsubr
          206 -192 rmoveto
          45 -276 -666 276 58 callsubr
          vlineto
          endchar
        </CharString>
        <CharString name="Ecircumflex">
          1 208 776 56 callsubr
          178 -87 rmoveto
          45 -276 -666 276 58 callsubr
          vlineto
          endchar
        </CharString>
        <CharString name="Edieresis">
          1 120 759 rmoveto
          -19 9 -14 24 126 callsubr
          vhcurveto
          125 hmoveto
          -19 9 -14 24 126 callsubr
          vhcurveto
          -170 -93 260 callsubr
        </CharString>
        <CharString name="Edotaccent">
          1 222 callsubr
          276 58 callsubr
          226 45 vlineto
          -165 122 rmoveto
          -19 9 -14 24 126 callsubr
          vhcurveto
          endchar
        </CharString>
        <CharString name="Egrave">
          1 222 callsubr
          276 58 callsubr
          226 45 vlineto
          -211 147 118 callsubr
        </CharString>
        <CharString name="Emacron">
          1 222 callsubr
          276 58 callsubr
          226 45 vlineto
          -241 114 207 callgsubr
        </CharString>
        <CharString name="Eogonek">
          1 351 621 rmoveto
          45 -276 -666 243 vlineto
          4 callsubr
          1 297 callsubr
        </CharString>
        <CharString name="Eth">
          68 343 318 callgsubr
          -109 259 122 45 -122 272 261 callsubr
          -317 -76 -45 76 -304 147 callsubr
          endchar
        </CharString>
        <CharString name="Euro">
          -1 115 253 rmoveto
          169 40 -169 92 169 40 -169 111 hlineto
          69 callgsubr
          -111 -52 -40 52 -92 -52 -40 52 -123 232 callsubr
        </CharString>
        <CharString name="F">
          -28 211 callgsubr
          303 208 45 -208 273 217 45 vlineto
          endchar
        </CharString>
        <CharString name="G">
          25 callgsubr
          endchar
        </CharString>
        <CharString name="Gbreve">
          25 callgsubr
          222 283 50 callgsubr
          endchar
        </CharString>
        <CharString name="H">
          95 359 666 rmoveto
          -317 -234 317 -50 -666 50 304 234 -304 51 666 vlineto
          endchar
        </CharString>
        <CharString name="I">
          151 callgsubr
          endchar
        </CharString>
        <CharString name="Iacute">
          151 callgsubr
          -9 147 206 callsubr
        </CharString>
        <CharString name="Icircumflex">
          -190 75 hmoveto
          50 666 -50 hlineto
          54 147 288 callsubr
        </CharString>
        <CharString name="Idieresis">
          151 callgsubr
          -122 93 89 callgsubr
        </CharString>
        <CharString name="Idotaccent">
          151 callgsubr
          -60 122 rmoveto
          -19 9 -14 24 126 callsubr
          vhcurveto
          endchar
        </CharString>
        <CharString name="Igrave">
          151 callgsubr
          -96 147 118 callsubr
        </CharString>
        <CharString name="Imacron">
          151 callgsubr
          -129 114 207 callgsubr
        </CharString>
        <CharString name="Iogonek">
          -190 125 666 rmoveto
          -50 -666 18 hlineto
          4 callsubr
          endchar
        </CharString>
        <CharString name="J">
          -190 75 666 rmoveto
          -472 vlineto
          -101 -13 -63 -21 -73 vhcurveto
          -30 -106 rlineto
          50 hlineto
          31 105 rlineto
          15 53 18 71 115 vvcurveto
          471 vlineto
          endchar
        </CharString>
        <CharString name="K">
          193 callsubr
          endchar
        </CharString>
        <CharString name="L">
          -51 75 666 267 callgsubr
        </CharString>
        <CharString name="Lacute">
          -51 116 813 -8 callsubr
          -96 -147 267 callgsubr
        </CharString>
        <CharString name="Lcaron">
          -51 194 711 -62 callsubr
          -142 -45 267 callgsubr
        </CharString>
        <CharString name="Lslash">
          -51 125 45 rmoveto
          266 vlineto
          100 56 rlineto
          45 vlineto
          -100 -56 rlineto
          310 -50 -337 vlineto
          -55 -31 rlineto
          -45 vlineto
          55 31 rlineto
          -284 259 45 vlineto
          endchar
        </CharString>
        <CharString name="M">
          211 459 666 rmoveto
          -159 -439 -159 439 rlineto
          -66 -666 47 385 hlineto
          103 -4 94 0 vhcurveto
          150 -402 rlineto
          64 hlineto
          149 402 rlineto
          0 -3 -81 -117 vvcurveto
          -384 48 666 vlineto
          endchar
        </CharString>
        <CharString name="N">
          101 366 666 139 callsubr
        </CharString>
        <CharString name="NULL">
          -390 endchar
        </CharString>
        <CharString name="Nacute">
          101 269 813 -8 callsubr
          42 133 callsubr
        </CharString>
        <CharString name="Ncaron">
          101 226 708 -19 callsubr
          188 133 callsubr
        </CharString>
        <CharString name="Ntilde">
          101 366 666 -30 callsubr
          -87 137 -33 callgsubr
        </CharString>
        <CharString name="O">
          117 callgsubr
          endchar
        </CharString>
        <CharString name="OE">
          269 244 45 rmoveto
          -79 -30 41 64 hvcurveto
          366 vlineto
          64 30 41 79 vhcurveto
          109 -576 hlineto
          276 576 rmoveto
          45 -385 vlineto
          -110 -49 -64 -86 hvcurveto
          -366 vlineto
          -86 49 -64 110 vhcurveto
          385 297 callsubr
        </CharString>
        <CharString name="Oacute">
          58 241 813 -8 callsubr
          -231 -290 -67 callsubr
          endchar
        </CharString>
        <CharString name="Ocircumflex">
          58 223 776 56 callsubr
          145 -565 rmoveto
          44 callsubr
          380 vlineto
          64 30 44 79 79 30 -44 -64 vhcurveto
          -268 -380 rmoveto
          122 callsubr
          380 vlineto
          86 -49 67 245 callsubr
          -49 -67 -86 vhcurveto
          endchar
        </CharString>
        <CharString name="Odieresis">
          58 128 759 rmoveto
          -19 9 -14 24 126 callsubr
          vhcurveto
          125 hmoveto
          -19 9 -14 24 126 callsubr
          vhcurveto
          -188 -236 -67 callsubr
          endchar
        </CharString>
        <CharString name="Ograve">
          117 callgsubr
          -190 290 118 callsubr
        </CharString>
        <CharString name="Ohungarumlaut">
          58 281 813 99 callgsubr
          -192 -290 -67 callsubr
          endchar
        </CharString>
        <CharString name="Omacron">
          58 120 780 rmoveto
          -39 210 39 vlineto
          -265 -257 -67 callsubr
          endchar
        </CharString>
        <CharString name="Oslash">
          58 333 143 rmoveto
          -64 -30 -44 -79 -42 -28 12 21 -17 vhcurveto
          195 474 rlineto
          1 -6 0 -6 -7 vvcurveto
          -218 hmoveto
          64 30 44 79 42 28 -12 -21 17 vhcurveto
          -195 -474 rlineto
          -1 6 0 6 7 vvcurveto
          268 523 rmoveto
          -44 hlineto
          -9 -21 rlineto
          19 -25 -35 12 -46 hhcurveto
          -110 -49 -67 -86 hvcurveto
          -380 vlineto
          -33 7 -30 16 -25 vhcurveto
          -23 -55 rlineto
          44 hlineto
          9 21 rlineto
          -19 25 35 -12 46 hhcurveto
          278 callsubr
          hvcurveto
          380 vlineto
          33 -7 30 -16 25 vhcurveto
          endchar
        </CharString>
        <CharString name="Otilde">
          117 callgsubr
          -33 280 -33 callgsubr
        </CharString>
        <CharString name="P">
          41 211 callgsubr
          239 97 vlineto
          110 49 64 86 hvcurveto
          127 237 callsubr
          109 -150 rmoveto
          -127 vlineto
          290 callsubr
          -97 337 97 hlineto
          226 callgsubr
          endchar
        </CharString>
        <CharString name="Q">
          58 115 523 rmoveto
          64 30 44 79 79 30 -44 -64 vhcurveto
          -380 124 callgsubr
          312 -247 rmoveto
          -106 119 rlineto
          42 27 20 47 54 vvcurveto
          380 vlineto
          86 -49 67 245 callsubr
          -49 -67 -86 vhcurveto
          -380 vlineto
          279 callgsubr
          18 17 2 3 15 vhcurveto
          88 -99 rlineto
          endchar
        </CharString>
        <CharString name="R">
          60 125 322 27 callsubr
        </CharString>
        <CharString name="Racute">
          60 301 813 rmoveto
          -55 hlineto
          -37 -105 rlineto
          37 hlineto
          -121 -386 27 callsubr
        </CharString>
        <CharString name="Rcaron">
          60 200 708 -19 callsubr
          -27 -491 27 callsubr
        </CharString>
        <CharString name="S">
          -16 30 537 -54 callgsubr
          endchar
        </CharString>
        <CharString name="Sacute">
          -16 205 813 -8 callsubr
          -230 -276 -54 callgsubr
          endchar
        </CharString>
        <CharString name="Scaron">
          -16 172 708 -19 callsubr
          17 -430 rmoveto
          -42 23 -19 27 49 vvcurveto
          57 vlineto
          57 38 29 74 48 48 -7 -10 28 vhcurveto
          48 vlineto
          8 -28 -45 7 -51 hhcurveto
          -108 -54 -52 -82 hvcurveto
          -58 vlineto
          -67 29 -40 55 -30 vhcurveto
          117 -64 rlineto
          44 -24 14 -24 -47 vvcurveto
          -49 vlineto
          -54 -34 -39 -92 -48 -50 10 304 callsubr
          -10 28 50 -9 51 hhcurveto
          121 55 53 86 hvcurveto
          52 vlineto
          62 -26 40 -55 30 vhcurveto
          endchar
        </CharString>
        <CharString name="T">
          -56 324 666 171 callgsubr
        </CharString>
        <CharString name="Tcaron">
          -56 143 708 -19 callsubr
          229 -147 171 callgsubr
        </CharString>
        <CharString name="Thorn">
          33 341 276 rmoveto
          -64 -30 -39 -79 vhcurveto
          -97 322 97 hlineto
          226 callgsubr
          -206 150 rmoveto
          126 -50 -666 50 126 97 vlineto
          110 49 64 86 hvcurveto
          114 237 callsubr
          endchar
        </CharString>
        <CharString name="U">
          95 callsubr
          endchar
        </CharString>
        <CharString name="Uacute">
          68 248 813 -8 callsubr
          35 -147 -41 callgsubr
          endchar
        </CharString>
        <CharString name="Ucircumflex">
          68 228 776 56 callsubr
          145 -42 -41 callgsubr
          endchar
        </CharString>
        <CharString name="Udieresis">
          68 133 759 rmoveto
          -19 9 -14 24 126 callsubr
          vhcurveto
          125 hmoveto
          -19 9 -14 24 126 callsubr
          vhcurveto
          80 -93 -41 callgsubr
          endchar
        </CharString>
        <CharString name="Ugrave">
          95 callsubr
          -233 147 118 callsubr
        </CharString>
        <CharString name="Uhungarumlaut">
          95 callsubr
          -110 147 99 callgsubr
          endchar
        </CharString>
        <CharString name="Umacron">
          95 callsubr
          -264 114 207 callgsubr
        </CharString>
        <CharString name="Uogonek">
          68 338 666 rmoveto
          -523 124 callgsubr
          523 -50 -523 vlineto
          279 callgsubr
          13 12 1 2 12 vhcurveto
          -24 -25 -15 -32 -31 vvcurveto
          -43 26 -22 52 vhcurveto
          12 42 -12 hlineto
          -26 -13 9 27 31 18 35 31 24 hvcurveto
          50 26 23 50 59 vvcurveto
          523 vlineto
          endchar
        </CharString>
        <CharString name="Uring">
          68 160 761 39 callgsubr
          69 -95 -41 callgsubr
          endchar
        </CharString>
        <CharString name="V">
          12 335 666 rmoveto
          -76 -343 -19 -90 -20 -90 -19 -90 rlinecurve
          -19 90 -20 89 -19 90 -76 344 rcurveline
          -52 hlineto
          150 -666 rlineto
          72 hlineto
          150 666 rlineto
          endchar
        </CharString>
        <CharString name="W">
          223 536 666 rmoveto
          -74 -446 rlineto
          -11 -68 -15 -107 0 vvcurveto
          0 -15 107 -11 68 vhcurveto
          -74 446 rlineto
          -59 hlineto
          -74 -445 rlineto
          -15 -88 -11 -88 0 vvcurveto
          0 -12 89 -14 86 vhcurveto
          -74 446 rlineto
          -52 hlineto
          116 -666 rlineto
          72 hlineto
          61 352 rlineto
          22 126 10 109 0 vvcurveto
          0 10 -105 23 -131 vhcurveto
          61 -351 rlineto
          72 hlineto
          116 666 rlineto
          endchar
        </CharString>
        <CharString name="X">
          -18 302 666 rmoveto
          -116 -273 -116 273 rlineto
          -55 hlineto
          145 -333 -145 -333 rlineto
          55 hlineto
          116 272 116 -272 rlineto
          55 hlineto
          -146 333 146 333 rlineto
          endchar
        </CharString>
        <CharString name="Y">
          0 333 666 90 callgsubr
          endchar
        </CharString>
        <CharString name="Yacute">
          0 333 666 90 callgsubr
          -174 147 206 callsubr
        </CharString>
        <CharString name="Ydieresis">
          0 93 759 rmoveto
          -19 9 -14 24 126 callsubr
          vhcurveto
          125 hmoveto
          -19 9 -14 24 126 callsubr
          vhcurveto
          115 -93 90 callgsubr
          endchar
        </CharString>
        <CharString name="Z">
          227 callgsubr
          endchar
        </CharString>
        <CharString name="Zacute">
          -19 202 813 -8 callsubr
          -221 -147 250 callsubr
          endchar
        </CharString>
        <CharString name="Zcaron">
          -19 168 708 -19 callsubr
          221 -147 rmoveto
          -305 -45 252 hlineto
          159 callgsubr
          endchar
        </CharString>
        <CharString name="Zdotaccent">
          227 callgsubr
          -191 122 rmoveto
          -19 9 -14 24 126 callsubr
          vhcurveto
          endchar
        </CharString>
        <CharString name="a">
          -96 callsubr
          endchar
        </CharString>
        <CharString name="aacute">
          -96 callsubr
          -79 423 206 callsubr
        </CharString>
        <CharString name="abreve">
          -96 callsubr
          -27 423 50 callgsubr
          endchar
        </CharString>
        <CharString name="acircumflex">
          32 215 676 56 callsubr
          123 -522 rmoveto
          -24 -27 -45 -22 -53 hhcurveto
          -70 -24 30 59 hvcurveto
          31 vlineto
          46 19 27 68 20 vhcurveto
          132 37 rlineto
          -242 210 rmoveto
          11 31 50 9 46 hhcurveto
          93 22 -32 -56 hvcurveto
          -95 vlineto
          -148 -42 rlineto
          -84 -24 -36 -45 -64 vvcurveto
          -32 vlineto
          -82 41 -52 99 68 29 20 24 31 vhcurveto
          -40 49 432 vlineto
          85 -47 51 -117 -49 -50 -9 -9 -28 vhcurveto
          endchar
        </CharString>
        <CharString name="acute">
          -40 166 713 206 callsubr
        </CharString>
        <CharString name="adieresis">
          -96 callsubr
          -189 369 89 callgsubr
        </CharString>
        <CharString name="ae">
          258 331 513 rmoveto
          35 -25 -46 20 -72 hhcurveto
          -49 -50 -9 -9 -28 hvcurveto
          -50 vlineto
          11 31 50 9 46 hhcurveto
          93 22 -32 -56 hvcurveto
          -95 vlineto
          -148 -42 rlineto
          -84 -24 -36 -45 -64 vvcurveto
          -32 vlineto
          -82 41 -52 99 61 62 21 31 35 vhcurveto
          -35 29 52 -18 75 293 callgsubr
          -40 35 62 hvcurveto
          113 265 167 vlineto
          86 -46 68 -110 -64 -45 -30 -30 -22 vhcurveto
          -28 -432 rmoveto
          -24 -27 -45 -17 -53 hhcurveto
          -70 -24 30 59 hvcurveto
          31 vlineto
          46 19 27 68 20 vhcurveto
          132 37 rlineto
          265 129 rmoveto
          -122 -215 122 vlineto
          64 30 45 79 79 27 -45 -64 vhcurveto
          endchar
        </CharString>
        <CharString name="agrave">
          -96 callsubr
          -171 423 118 callsubr
        </CharString>
        <CharString name="amacron">
          -96 callsubr
          -205 390 207 callgsubr
        </CharString>
        <CharString name="ampersand">
          55 338 143 rmoveto
          -64 -37 -44 -79 -79 -40 44 64 vhcurveto
          68 vlineto
          62 27 46 75 vhcurveto
          133 hlineto
          90 45 rmoveto
          -40 57 -50 -57 -135 hlineto
          -75 -24 45 63 hvcurveto
          54 vlineto
          55 26 42 103 48 46 -10 -11 31 vhcurveto
          50 vlineto
          9 -28 -46 10 -51 hhcurveto
          -127 -52 -61 -84 hvcurveto
          -54 vlineto
          -63 24 -47 55 -21 vhcurveto
          -55 -21 -25 -47 -62 vvcurveto
          -68 vlineto
          -86 59 156 callsubr
          56 67 86 vhcurveto
          176 40 vlineto
          endchar
        </CharString>
        <CharString name="aogonek">
          32 303 86 rmoveto
          -24 -27 -45 -22 -53 hhcurveto
          -70 -24 30 59 hvcurveto
          31 vlineto
          46 19 27 68 20 vhcurveto
          132 37 rlineto
          -242 210 rmoveto
          11 31 50 9 46 hhcurveto
          93 22 -32 -56 hvcurveto
          -95 vlineto
          -148 -42 rlineto
          -84 -24 -36 -45 -64 vvcurveto
          -32 vlineto
          -82 41 -52 99 68 29 20 24 31 vhcurveto
          -40 16 vlineto
          4 callsubr
          1 432 hlineto
          85 -47 51 -117 -49 -50 -9 -9 -28 vhcurveto
          endchar
        </CharString>
        <CharString name="apostrophemod">
          -243 70 708 189 callgsubr
        </CharString>
        <CharString name="approxequal">
          31 337 315 75 callsubr
          -37 130 75 callsubr
          endchar
        </CharString>
        <CharString name="aring">
          -96 callsubr
          -166 371 39 callgsubr
          endchar
        </CharString>
        <CharString name="asciicircum">
          -105 276 374 rmoveto
          -99 270 rlineto
          -73 hlineto
          -100 -270 rlineto
          47 hlineto
          89 248 89 -248 rlineto
          endchar
        </CharString>
        <CharString name="asciitilde">
          -15 313 382 75 callsubr
          endchar
        </CharString>
        <CharString name="asterisk">
          89 414 632 rmoveto
          -13 39 -100 -33 -25 -8 -15 -10 -8 -8 rlinecurve
          4 11 5 17 27 vvcurveto
          104 -41 -104 vlineto
          -27 5 -17 5 -11 vhcurveto
          -9 8 -15 10 -26 8 -99 32 rcurveline
          -12 -39 99 -32 26 -8 17 -1 12 1 rlinecurve
          -11 -6 -13 -11 -16 -22 -61 -84 rcurveline
          33 -24 61 85 16 21 6 17 3 11 rlinecurve
          2 -11 7 -17 16 -22 61 -84 rcurveline
          33 24 -62 85 -16 21 -13 11 -10 6 rlinecurve
          11 -1 18 1 26 9 rrcurveto
          endchar
        </CharString>
        <CharString name="at">
          451 509 120 rmoveto
          0 -36 -33 -69 -46 -30 19 51 vhcurveto
          12 vlineto
          55 30 12 50 15 vhcurveto
          101 30 rlineto
          -1 -387 rmoveto
          42 -84 vlineto
          -221 -80 124 211 211 80 124 221 221 81 -113 -211 -160 -43 -46 -56 -48 -24 22 59 hvcurveto
          225 vlineto
          72 -37 52 -92 -41 -44 -7 -9 -37 vhcurveto
          -45 vlineto
          13 57 27 4 38 hhcurveto
          67 16 -33 -47 hvcurveto
          -55 vlineto
          -108 -32 rlineto
          -72 -22 -51 -27 -77 vvcurveto
          -11 vlineto
          -74 48 -40 78 71 39 25 10 12 vhcurveto
          -28 17 31 -18 53 hhcurveto
          92 54 69 180 238 -97 128 -252 -248 -100 -139 -238 -238 96 -139 252 hvcurveto
          endchar
        </CharString>
        <CharString name="atilde">
          -96 callsubr
          -17 413 -33 callgsubr
        </CharString>
        <CharString name="b">
          53 75 713 rmoveto
          -713 156 vlineto
          88 59 53 95 hvcurveto
          284 vlineto
          85 -52 49 -83 -46 -48 -17 -10 -25 vhcurveto
          174 vlineto
          204 -281 rmoveto
          -284 vlineto
          -71 -39 -32 -69 vhcurveto
          -95 446 hlineto
          14 38 39 14 41 hhcurveto
          53 32 -27 -60 hvcurveto
          endchar
        </CharString>
        <CharString name="backslash">
          -23 31 764 rmoveto
          269 -884 rlineto
          44 hlineto
          -269 884 rlineto
          endchar
        </CharString>
        <CharString name="bar">
          -187 80 784 rmoveto
          -924 43 924 vlineto
          endchar
        </CharString>
        <CharString name="braceleft">
          -55 185 648 rmoveto
          44 23 30 70 vhcurveto
          7 42 -8 hlineto
          -88 -49 -43 -73 hvcurveto
          -231 vlineto
          -44 -26 -30 -52 vhcurveto
          -2 -42 2 hlineto
          52 26 -30 -44 hvcurveto
          -231 vlineto
          -73 49 -43 88 vhcurveto
          8 42 -7 hlineto
          -70 -23 30 44 hvcurveto
          211 vlineto
          68 -17 40 -67 7 vhcurveto
          67 7 17 40 68 vvcurveto
          endchar
        </CharString>
        <CharString name="braceright">
          -55 273 343 rmoveto
          -52 -26 30 44 hvcurveto
          231 vlineto
          73 -49 43 -88 vhcurveto
          -8 -42 7 hlineto
          70 23 -30 -44 hvcurveto
          -211 vlineto
          -68 17 -40 67 -7 vhcurveto
          -67 -7 -17 -40 -68 vvcurveto
          -211 vlineto
          -44 -23 -30 -70 vhcurveto
          -7 -42 8 hlineto
          88 49 43 73 hvcurveto
          231 vlineto
          44 26 30 52 vhcurveto
          2 42 hlineto
          endchar
        </CharString>
        <CharString name="bracketleft">
          -115 125 724 rmoveto
          124 40 -169 -884 169 40 -124 hlineto
          endchar
        </CharString>
        <CharString name="bracketright">
          -115 26 764 rmoveto
          -40 124 -804 -124 -40 169 884 vlineto
          endchar
        </CharString>
        <CharString name="breve">
          -40 239 713 50 callgsubr
          endchar
        </CharString>
        <CharString name="brokenbar">
          -187 80 784 rmoveto
          -375 43 375 vlineto
          -43 -549 rmoveto
          -375 43 375 vlineto
          endchar
        </CharString>
        <CharString name="bullet">
          -116 72 322 rmoveto
          -38 17 -27 48 47 18 27 38 37 -18 28 -47 -48 -17 -28 -37 vhcurveto
          endchar
        </CharString>
        <CharString name="c">
          -21 65 433 rmoveto
          -304 vlineto
          -84 44 -50 117 43 35 7 7 25 vhcurveto
          87 callgsubr
          endchar
        </CharString>
        <CharString name="cacute">
          -21 243 713 -8 callsubr
          -233 -280 rmoveto
          -304 vlineto
          -84 44 -50 117 43 35 7 7 25 vhcurveto
          87 callgsubr
          endchar
        </CharString>
        <CharString name="caron">
          -40 210 713 rmoveto
          -35 -68 -35 68 rlineto
          -36 hlineto
          48 -105 rlineto
          46 hlineto
          48 105 rlineto
          endchar
        </CharString>
        <CharString name="ccaron">
          -21 195 608 -19 callsubr
          -32 -280 rmoveto
          55 18 34 93 37 36 -5 -8 28 vhcurveto
          46 vlineto
          7 -23 -36 6 -42 hhcurveto
          -117 -44 -51 -84 hvcurveto
          -304 vlineto
          -84 44 -50 117 43 35 7 7 25 vhcurveto
          47 vlineto
          -9 -27 -35 -6 -41 hhcurveto
          -93 -18 33 55 hvcurveto
          endchar
        </CharString>
        <CharString name="ccedilla">
          -21 226 -5 rmoveto
          43 35 7 7 25 hvcurveto
          87 callgsubr
          -304 vlineto
          -75 35 -48 91 -9 vhcurveto
          -13 -64 104 callsubr
          8 35 rlineto
          endchar
        </CharString>
        <CharString name="cedilla">
          -40 151 6 rmoveto
          -15 -73 104 callsubr
          10 46 rlineto
          endchar
        </CharString>
        <CharString name="cent">
          15 339 56 rmoveto
          -9 -27 -35 -6 -41 hhcurveto
          -93 -18 33 55 hvcurveto
          304 vlineto
          55 18 34 93 37 36 -5 -8 28 vhcurveto
          46 vlineto
          -19 6 -29 5 -33 2 rrcurveto
          85 -45 -86 vlineto
          -98 -7 -38 -49 -78 vvcurveto
          -304 vlineto
          -78 38 -49 99 -6 vhcurveto
          -76 45 76 vlineto
          33 1 28 6 21 6 rrcurveto
          endchar
        </CharString>
        <CharString name="circumflex">
          -40 246 608 rmoveto
          -48 105 rlineto
          -46 hlineto
          -48 -105 rlineto
          36 hlineto
          35 68 35 -68 rlineto
          endchar
        </CharString>
        <CharString name="colon">
          -202 30 382 rmoveto
          6 callsubr
          -350 vmoveto
          6 callsubr
          endchar
        </CharString>
        <CharString name="comma">
          -264 272 callsubr
          endchar
        </CharString>
        <CharString name="copyright">
          291 50 321 rmoveto
          -186 62 -135 230 225 64 138 183 189 -51 134 -238 -236 -56 -137 -186 vhcurveto
          176 53 rmoveto
          -105 vlineto
          -78 31 -49 99 22 30 3 4 22 vhcurveto
          48 vlineto
          -7 -19 -19 -4 -36 hhcurveto
          -78 -5 36 47 hvcurveto
          105 vlineto
          47 5 37 78 35 19 -4 -7 19 vhcurveto
          47 vlineto
          5 -22 -29 2 -22 hhcurveto
          -99 -31 -49 -78 hvcurveto
          358 -53 rmoveto
          -159 -39 -118 -203 -209 -36 115 162 162 33 117 212 211 31 -115 -164 vhcurveto
          endchar
        </CharString>
        <CharString name="currency">
          70 134 368 rmoveto
          64 17 35 79 79 17 -35 -64 vhcurveto
          -70 vlineto
          -64 -17 -35 -79 -79 -17 35 64 vhcurveto
          241 70 rmoveto
          27 -4 25 -8 20 vhcurveto
          44 43 -35 35 -38 -37 rlineto
          19 -23 -33 11 -48 hhcurveto
          -48 -33 -11 -19 -23 hvcurveto
          -38 37 -35 -35 44 -43 rlineto
          -8 -20 -4 -25 -27 vvcurveto
          -70 vlineto
          -27 4 -25 8 -20 vhcurveto
          -44 -43 35 -35 38 37 rlineto
          -19 23 33 -11 48 hhcurveto
          48 33 11 19 23 hvcurveto
          38 -37 35 35 -44 43 rlineto
          8 20 4 25 27 vvcurveto
          endchar
        </CharString>
        <CharString name="d">
          125 callgsubr
          endchar
        </CharString>
        <CharString name="dagger">
          259 callgsubr
          0 -4 -64 -59 vvcurveto
          -514 43 514 vlineto
          59 -4 64 0 vhcurveto
          0 46 -4 52 vhcurveto
          40 vlineto
          -52 -46 -4 0 hvcurveto
          0 4 66 58 vvcurveto
          endchar
        </CharString>
        <CharString name="daggerdbl">
          259 callgsubr
          -2 -150 0 -181 2 -150 rrcurveto
          0 -40 4 -58 vhcurveto
          -40 vlineto
          58 40 4 0 hvcurveto
          0 -4 -51 -73 vvcurveto
          43 hlineto
          73 -4 51 0 vhcurveto
          321 callsubr
          2 150 0 181 -2 150 rrcurveto
          321 callsubr
          0 4 66 58 vvcurveto
          endchar
        </CharString>
        <CharString name="danda">
          -115 150 hmoveto
          45 644 -45 hlineto
          endchar
        </CharString>
        <CharString name="dcaron">
          125 callgsubr
          118 194 -62 callsubr
          endchar
        </CharString>
        <CharString name="dcroat">
          53 318 82 rmoveto
          -20 -20 -36 -20 -52 hhcurveto
          -63 -32 32 67 hvcurveto
          280 vlineto
          64 38 32 70 vhcurveto
          95 hlineto
          90 149 rmoveto
          -40 47 -50 -47 -123 -41 123 -62 -107 hlineto
          -82 -64 -48 -94 hvcurveto
          -279 vlineto
          -93 49 -52 95 57 31 17 17 22 vhcurveto
          -31 49 625 40 vlineto
          endchar
        </CharString>
        <CharString name="degree">
          -38 55 644 rmoveto
          -75 30 -59 94 94 31 59 75 75 -31 60 -94 -94 -30 -60 -75 vhcurveto
          209 -1 rmoveto
          -52 -12 -42 -73 -73 -11 42 52 52 11 43 73 73 12 -43 -52 vhcurveto
          endchar
        </CharString>
        <CharString name="dieresis">
          -40 79 659 89 callgsubr
        </CharString>
        <CharString name="divide">
          31 40 341 rmoveto
          -40 341 40 vlineto
          -200 -193 rmoveto
          -19 9 -14 24 126 callsubr
          vhcurveto
          343 273 callsubr
        </CharString>
        <CharString name="dollar">
          -16 141 383 rmoveto
          -42 23 -19 27 49 vvcurveto
          57 vlineto
          57 38 29 74 48 48 -7 -10 28 vhcurveto
          48 vlineto
          -25 7 -39 7 -44 1 rrcurveto
          62 -45 -63 vlineto
          -89 -9 -44 -50 -74 vvcurveto
          -58 vlineto
          -67 29 -40 55 -30 vhcurveto
          117 -64 rlineto
          44 -24 14 -24 -47 vvcurveto
          -49 vlineto
          -54 -34 -39 -92 -48 -50 10 304 callsubr
          26 -9 46 -9 47 -1 rrcurveto
          -75 45 77 vlineto
          97 9 44 51 77 vvcurveto
          52 vlineto
          62 -26 40 -55 30 vhcurveto
          endchar
        </CharString>
        <CharString name="dotaccent">
          -40 140 688 rmoveto
          -19 9 -14 24 126 callsubr
          vhcurveto
          endchar
        </CharString>
        <CharString name="dotlessi">
          149 callsubr
          endchar
        </CharString>
        <CharString name="dottedcircle">
          270 139 517 rmoveto
          -26 18 -19 26 26 18 19 26 25 -18 19 -26 -26 -18 -19 -25 vhcurveto
          -82 -110 rmoveto
          -25 20 -19 26 24 20 19 25 25 -20 19 -24 -26 -20 -19 -25 vhcurveto
          -13 -126 rmoveto
          -25 19 -18 25 26 18 18 343 callgsubr
          52 -116 rmoveto
          -26 18 -18 26 25 19 18 26 25 -19 19 -25 -26 -18 -19 -25 vhcurveto
          101 -75 rmoveto
          -26 19 -20 26 25 19 20 26 24 -19 20 -25 -26 -19 -20 -24 vhcurveto
          127 -16 rmoveto
          -26 18 -18 26 26 19 18 26 26 -19 18 -26 -26 -18 -18 -26 vhcurveto
          121 53 rmoveto
          -26 19 -18 25 25 20 18 26 25 -20 19 -25 -25 -19 -19 -25 vhcurveto
          73 98 rmoveto
          -25 19 -19 26 24 19 19 25 26 -19 19 -24 -26 -19 -19 -26 vhcurveto
          10 134 rmoveto
          -26 18 -18 26 25 19 18 26 26 -19 18 -25 -26 -18 -18 -26 vhcurveto
          -50 118 rmoveto
          -25 19 -19 25 26 18 19 343 callgsubr
          -95 68 rmoveto
          -24 19 -20 26 25 18 20 24 26 -18 19 -25 -26 -19 -19 -26 vhcurveto
          -126 15 rmoveto
          -26 18 -18 26 26 18 18 26 26 -18 18 -26 -26 -18 -18 -26 vhcurveto
          endchar
        </CharString>
        <CharString name="doubledanda">
          57 130 hmoveto
          45 644 -45 hlineto
          192 -644 rmoveto
          45 644 -45 hlineto
          endchar
        </CharString>
        <CharString name="dvA">
          160 425 644 rmoveto
          -391 -130 vlineto
          -73 callsubr
          100 40 vlineto
          endchar
        </CharString>
        <CharString name="dvAA">
          394 805 644 rmoveto
          -350 -391 -75 callgsubr
          160 276 callgsubr
        </CharString>
        <CharString name="dvAI">
          33 353 644 rmoveto
          -159 229 rlineto
          -52 hlineto
          164 -229 rlineto
          -326 -40 95 -492 hlineto
          343 callsubr
          42 vlineto
          -8 -23 -49 -12 -49 hhcurveto
          -72 -28 30 45 hvcurveto
          492 205 callsubr
          vlineto
          endchar
        </CharString>
        <CharString name="dvAU">
          395 703 644 rmoveto
          -48 160 rlineto
          48 -14 -25 70 callgsubr
          30 9 -18 -31 9 hvcurveto
          42 -139 rlineto
          -40 hlineto
          -109 170 -65 callsubr
          -117 -391 -75 callgsubr
          160 -604 -23 callsubr
        </CharString>
        <CharString name="dvAbbreviationsign">
          -38 55 335 rmoveto
          -75 30 -59 94 94 31 59 75 75 -31 60 -94 -94 -30 -60 -75 vhcurveto
          40 -1 rmoveto
          52 11 43 73 73 12 -43 -52 -52 -12 -42 -73 -73 -11 42 52 vhcurveto
          endchar
        </CharString>
        <CharString name="dvAcandra">
          160 425 253 rmoveto
          -75 callgsubr
          100 40 -145 vlineto
          127 175 rmoveto
          35 callsubr
          1 vlineto
          endchar
        </CharString>
        <CharString name="dvAnusvara">
          -390 -136 760 rmoveto
          -19 9 -14 24 126 callsubr
          vhcurveto
          endchar
        </CharString>
        <CharString name="dvAnusvara.amI">
          -390 13 740 rmoveto
          -19 9 -14 24 126 callsubr
          vhcurveto
          endchar
        </CharString>
        <CharString name="dvAvagraha">
          30 380 203 rmoveto
          60 -19 43 -64 33 vhcurveto
          -137 72 rlineto
          -45 24 -9 31 39 vvcurveto
          27 vlineto
          40 8 30 85 vhcurveto
          158 42 -158 hlineto
          -105 -33 -42 -70 hvcurveto
          -27 vlineto
          -60 19 -43 64 -33 vhcurveto
          137 -72 rlineto
          45 -24 9 -31 -39 vvcurveto
          -76 vlineto
          -50 -17 -40 -95 vhcurveto
          -2 hlineto
          -95 -17 40 50 hvcurveto
          70 -45 -70 vlineto
          -80 42 -52 115 vhcurveto
          2 hlineto
          115 42 52 80 hvcurveto
          endchar
        </CharString>
        <CharString name="dvB">
          -181 -20 644 rmoveto
          -40 350 40 vlineto
          -280 -256 rmoveto
          280 callgsubr
          45 -42 95 100 40 42 75 vhcurveto
          197 341 callgsubr
          235 -185 rmoveto
          -179 226 rlineto
          20 13 25 14 46 hhcurveto
          72 23 -34 -42 hvcurveto
          -190 -5 rmoveto
          182 -230 rlineto
          -23 -12 -25 -13 -50 hhcurveto
          -75 -20 30 45 hvcurveto
          endchar
        </CharString>
        <CharString name="dvBA">
          17 95 346 -44 callgsubr
          -305 195 rmoveto
          -40 305 -113 vlineto
          197 callgsubr
          -190 vlineto
          111 callsubr
          40 vlineto
          endchar
        </CharString>
        <CharString name="dvBH">
          6 259 175 50 callsubr
          222 40 rmoveto
          -177 146 -18 callsubr
          -146 211 callsubr
          -101 -47 callsubr
          171 177 vlineto
          endchar
        </CharString>
        <CharString name="dvBHA">
          181 259 175 50 callsubr
          40 vmoveto
          212 callsubr
          -101 -47 callsubr
          171 142 -346 -85 callsubr
          40 -145 -20 callgsubr
          endchar
        </CharString>
        <CharString name="dvBH_LA">
          604 259 175 50 callsubr
          105 298 rmoveto
          -40 505 -144 vlineto
          41 callgsubr
          -76 -41 -34 -56 -10 hvcurveto
          -138 146 -18 callsubr
          -146 211 callsubr
          -101 -47 callsubr
          171 135 -200 vlineto
          119 callsubr
          vlineto
          endchar
        </CharString>
        <CharString name="dvBH_NA">
          557 635 175 -103 callgsubr
          -376 -186 50 callsubr
          105 298 rmoveto
          -40 458 310 callgsubr
          vlineto
          -73 -42 -29 -61 -7 hvcurveto
          -131 146 143 callgsubr
          -27 4 -29 222 callgsubr
          30 26 -10 callsubr
          -146 211 callsubr
          -101 -47 callsubr
          171 130 -171 -73 callgsubr
          155 -436 45 604 100 40 hlineto
          endchar
        </CharString>
        <CharString name="dvBH_R">
          13 487 416 rmoveto
          -176 116 143 callgsubr
          -25 203 callsubr
          27 29 -10 callsubr
          -116 211 callsubr
          312 callsubr
          176 vlineto
          -111 vmoveto
          -297 -309 rlineto
          63 hlineto
          111 117 41 42 57 68 25 33 rlinecurve
          -221 29 195 callgsubr
          endchar
        </CharString>
        <CharString name="dvBH_RA">
          191 266 245 195 callgsubr
          190 -143 rmoveto
          191 callgsubr
          10 2 3 rlinecurve
          0 -3 -57 -85 vvcurveto
          -36 -85 callsubr
          40 -145 86 callsubr
          -90 -37 -35 -75 hvcurveto
          312 callsubr
          145 vlineto
          endchar
        </CharString>
        <CharString name="dvBH_R_YA">
          485 750 324 callgsubr
          91 vlineto
          81 53 33 84 hvcurveto
          68 337 callgsubr
          159 hlineto
          -491 -359 -23 callgsubr
          46 vlineto
          45 12 25 70 vhcurveto
          82 hlineto
          105 283 rmoveto
          -40 127 vlineto
          69 18 -30 -45 hvcurveto
          -68 vlineto
          -60 -27 -15 -83 vhcurveto
          10 -11 -19 5 -28 hhcurveto
          -106 131 hlineto
          143 callsubr
          -41 45 41 138 callgsubr
          -131 211 callsubr
          -46 -47 callsubr
          116 100 vlineto
          18 16 -3 -11 6 hvcurveto
          -94 vlineto
          -11 1 -10 -10 vvcurveto
          -255 -266 rlineto
          63 hlineto
          111 117 28 29 35 40 28 34 rlinecurve
          -73 25 63 -18 75 hhcurveto
          75 38 19 28 19 hvcurveto
          -132 -23 callsubr
        </CharString>
        <CharString name="dvBH_VA">
          417 682 130 146 callsubr
          108 298 201 callsubr
          -93 -51 -48 -71 -2 hvcurveto
          -133 146 -18 callsubr
          -146 211 callsubr
          -101 -47 callsubr
          171 133 -147 -33 callsubr
          40 vlineto
          endchar
        </CharString>
        <CharString name="dvBH_YA">
          485 750 139 -17 callsubr
        </CharString>
        <CharString name="dvB_BA">
          252 330 346 221 callgsubr
          -72 74 callsubr
          -45 -4 rmoveto
          -48 -24 -27 -71 -75 -20 30 45 vhcurveto
          155 vlineto
          190 -144 rlineto
          235 46 221 callsubr
          41 4 27 29 70 hhcurveto
          49 31 -10 -4 9 hvcurveto
          142 195 rmoveto
          -682 -40 540 -113 hlineto
          197 callgsubr
          -137 vlineto
          -74 callsubr
          61 38 15 29 21 vhcurveto
          -28 24 41 -16 56 hhcurveto
          49 31 10 4 9 hvcurveto
          -88 42 -39 callgsubr
        </CharString>
        <CharString name="dvB_BHA">
          416 232 644 rmoveto
          -252 -40 252 hlineto
          262 -429 50 callsubr
          -399 hmoveto
          -27 callsubr
          586 453 rmoveto
          -20 callgsubr
          -146 211 callsubr
          -28 vlineto
          -74 callsubr
          53 36 12 22 22 vhcurveto
          -30 18 36 -15 57 219 callgsubr
          171 142 -346 -23 callsubr
        </CharString>
        <CharString name="dvB_BH_RA">
          419 238 644 rmoveto
          -258 -40 258 hlineto
          256 -359 195 callgsubr
          -399 -30 rmoveto
          -27 callsubr
          589 453 rmoveto
          86 callsubr
          -90 -37 -35 -75 hvcurveto
          -58 vlineto
          -74 callsubr
          81 42 28 51 13 vhcurveto
          -14 20 28 -6 38 219 callgsubr
          172 callsubr
        </CharString>
        <CharString name="dvB_DA">
          245 95 346 rmoveto
          -27 callsubr
          235 196 218 callgsubr
          -675 -40 530 -100 -85 238 callgsubr
          -139 vlineto
          -74 callsubr
          63 40 17 31 20 vhcurveto
          -29 26 42 -16 56 hhcurveto
          40 24 3 7 29 hvcurveto
          -24 callsubr
          endchar
        </CharString>
        <CharString name="dvB_DHA">
          314 95 346 rmoveto
          -27 callsubr
          484 453 167 callsubr
          -474 -40 320 99 callsubr
          -16 vlineto
          -74 callsubr
          62 39 16 30 20 vhcurveto
          -39 31 55 -17 65 hhcurveto
          51 35 6 9 31 hvcurveto
          -79 -23 callsubr
        </CharString>
        <CharString name="dvB_DH_VA">
          543 808 -81 callgsubr
          -713 -103 rmoveto
          -27 callsubr
          452 453 -29 callsubr
          -444 -40 320 hlineto
          304 callgsubr
          -53 -47 callgsubr
          -36 vlineto
          -74 callsubr
          72 41 22 40 17 vhcurveto
          -32 32 51 -14 59 hhcurveto
          41 55 9 10 39 hvcurveto
          -23 25 38 -12 49 47 callsubr
          40 vlineto
          endchar
        </CharString>
        <CharString name="dvB_JA">
          450 95 382 8 callsubr
        </CharString>
        <CharString name="dvB_JHA">
          518 783 309 rmoveto
          -274 hlineto
          194 callsubr
          hlineto
          -688 -258 rmoveto
          -27 callsubr
          833 453 rmoveto
          -948 -40 620 -99 -88 317 callsubr
          -30 7 -25 15 -19 vhcurveto
          -109 -61 hlineto
          -190 145 rlineto
          42 2 21 28 72 hhcurveto
          30 27 -5 0 hvcurveto
          42 vlineto
          0 -28 5 -29 -95 -45 -42 -75 vhcurveto
          280 callgsubr
          45 -42 95 100 40 42 75 vhcurveto
          76 174 0 7 vlineto
          130 callgsubr
        </CharString>
        <CharString name="dvB_J_YA">
          726 991 247 callsubr
          107 vlineto
          81 53 33 84 hvcurveto
          52 175 callsubr
          -896 -222 rmoveto
          182 -230 rlineto
          -23 -12 -25 -13 -50 hhcurveto
          -75 -20 30 45 hvcurveto
          190 12 rmoveto
          -179 226 rlineto
          20 13 25 14 46 hhcurveto
          72 23 -34 -42 hvcurveto
          851 257 rmoveto
          -1156 -40 831 hlineto
          -88 callsubr
          -52 299 callsubr
          75 -3 -43 18 -65 hhcurveto
          -217 1 callgsubr
          45 hlineto
          57 26 -5 -50 hvcurveto
          -147 vlineto
          -92 callsubr
        </CharString>
        <CharString name="dvB_JxA">
          450 296 10 rmoveto
          -44 callsubr
          -103 callsubr
          hvcurveto
          -201 372 8 callsubr
        </CharString>
        <CharString name="dvB_LA">
          450 95 346 rmoveto
          -27 callsubr
          765 453 rmoveto
          -880 -40 735 -144 hlineto
          20 callgsubr
          -106 vlineto
          -74 callsubr
          45 33 8 16 22 vhcurveto
          -61 14 47 -37 89 hhcurveto
          12 callgsubr
          hvcurveto
          -91 callsubr
        </CharString>
        <CharString name="dvB_L_YA">
          741 1006 -105 callgsubr
          -911 -258 rmoveto
          -27 callsubr
          1056 453 rmoveto
          -1171 -40 846 122 callgsubr
          -68 -3 vhcurveto
          59 -9 -38 36 -76 hhcurveto
          -47 -30 -31 callsubr
          -90 -40 -47 -75 hvcurveto
          -106 vlineto
          -74 callsubr
          45 33 8 16 22 vhcurveto
          -61 14 47 -37 89 hhcurveto
          101 callsubr
          -101 vlineto
          -92 callsubr
        </CharString>
        <CharString name="dvB_NA">
          408 486 175 -103 callgsubr
          -391 -15 rmoveto
          -27 callsubr
          190 57 221 callsubr
          42 2 21 28 72 hhcurveto
          71 24 -26 -49 hvcurveto
          533 256 rmoveto
          -838 -40 693 310 callgsubr
          hlineto
          -40 -30 -9 -17 -21 hvcurveto
          36 -19 -40 19 -68 hhcurveto
          20 callsubr
          280 callgsubr
          45 -42 95 53 36 12 22 23 vhcurveto
          -30 19 36 -15 51 220 callsubr
          -53 callsubr
        </CharString>
        <CharString name="dvB_R">
          -176 100 348 rmoveto
          190 -138 rlineto
          -10 vlineto
          -48 -24 -27 -71 -75 -20 30 45 vhcurveto
          190 56 rmoveto
          -190 138 rlineto
          42 2 22 27 71 hhcurveto
          71 24 -26 -49 hvcurveto
          -235 -188 rmoveto
          -75 43 -45 110 3 vhcurveto
          -160 -146 rlineto
          65 hlineto
          156 145 rlineto
          46 42 20 20 56 vvcurveto
          188 341 callgsubr
          -75 256 rmoveto
          -40 375 40 vlineto
          endchar
        </CharString>
        <CharString name="dvB_RA">
          22 100 167 callgsubr
          -310 195 rmoveto
          -40 310 -113 vlineto
          197 callgsubr
          -164 232 callgsubr
          40 hlineto
          endchar
        </CharString>
        <CharString name="dvB_SA">
          420 685 271 callsubr
          148 hlineto
          -590 -258 rmoveto
          -27 callsubr
          735 453 rmoveto
          -850 -40 512 hlineto
          -52 callsubr
          137 -45 -202 vlineto
          -190 145 rlineto
          42 2 21 28 72 hhcurveto
          17 16 -3 0 hvcurveto
          42 vlineto
          0 -16 3 -17 -95 -45 -42 -75 vhcurveto
          280 callgsubr
          45 -42 95 44 32 8 15 22 vhcurveto
          -70 15 62 -32 82 hhcurveto
          57 44 10 6 22 hvcurveto
          -59 callgsubr
        </CharString>
        <CharString name="dvB_SHA">
          412 230 644 rmoveto
          -250 -40 250 hlineto
          -135 -258 rmoveto
          -27 callsubr
          238 299 227 callsubr
          86 -45 -156 vlineto
          -74 callsubr
          44 33 8 16 22 vhcurveto
          -67 17 64 -36 82 hhcurveto
          185 callsubr
          hvcurveto
          -42 callsubr
        </CharString>
        <CharString name="dvB_TA">
          265 95 346 rmoveto
          -27 callsubr
          580 453 rmoveto
          -695 -40 550 237 callgsubr
          263 callsubr
          -135 vlineto
          -74 callsubr
          42 32 7 15 22 vhcurveto
          -59 7 40 -38 74 hhcurveto
          -54 callsubr
          vlineto
          endchar
        </CharString>
        <CharString name="dvB_VA">
          265 530 -81 callgsubr
          -245 -258 rmoveto
          -48 -24 -27 -71 -75 -20 30 45 vhcurveto
          155 vlineto
          190 -144 rlineto
          390 442 rmoveto
          -695 -40 550 -113 hlineto
          -4 callgsubr
          -133 vlineto
          -74 callsubr
          61 39 16 29 21 vhcurveto
          -29 24 40 -16 56 47 callsubr
          vlineto
          endchar
        </CharString>
        <CharString name="dvB_YA">
          326 591 -105 callgsubr
          -496 -258 rmoveto
          -27 callsubr
          641 453 rmoveto
          -756 -40 431 248 callgsubr
          -133 hlineto
          -74 callsubr
          73 41 22 41 17 vhcurveto
          -41 35 58 -11 59 -7 callsubr
        </CharString>
        <CharString name="dvC">
          315 callsubr
          12 -480 rmoveto
          -11 -33 -45 -7 -35 18 callgsubr
          38 50 9 9 25 vhcurveto
          endchar
        </CharString>
        <CharString name="dvCA">
          65 140 344 rmoveto
          19 callgsubr
          -157 169 callgsubr
          40 -495 -40 350 -483 vlineto
          165 callsubr
          endchar
        </CharString>
        <CharString name="dvCH">
          103 315 493 rmoveto
          287 callgsubr
          -209 225 callgsubr
          132 vlineto
          57 29 18 48 vhcurveto
          320 40 -533 -40 123 hlineto
          -20 -10 -12 -20 -45 vvcurveto
          -132 vlineto
          79 callgsubr
          -24 57 -95 vhcurveto
          endchar
        </CharString>
        <CharString name="dvCHA">
          104 71 34 callgsubr
          endchar
        </CharString>
        <CharString name="dvCH_R">
          104 233 -156 123 callgsubr
          114 323 3 callgsubr
        </CharString>
        <CharString name="dvCH_RA">
          104 389 167 3 callgsubr
        </CharString>
        <CharString name="dvCH_R_YA">
          591 856 7 callsubr
          7 254 callgsubr
          -249 110 500 hlineto
          -467 -437 -71 callsubr
          612 268 rmoveto
          -1021 -40 101 hlineto
          82 callgsubr
          -90 41 -40 101 -8 vhcurveto
          -90 -161 rlineto
          49 hlineto
          86 159 rlineto
          2 hlineto
          86 -159 rlineto
          49 hlineto
          -90 161 rlineto
          -1 hlineto
          97 9 39 40 89 vvcurveto
          209 vlineto
          31 -6 26 -13 19 vhcurveto
          190 hlineto
          66 13 -30 -45 hvcurveto
          -7 -24 callgsubr
        </CharString>
        <CharString name="dvCH_YA">
          570 835 7 callsubr
          7 254 callgsubr
          -180 hlineto
          18 -19 -28 11 -42 hhcurveto
          287 callgsubr
          -239 225 callgsubr
          132 vlineto
          57 29 18 48 vhcurveto
          642 hlineto
          186 callgsubr
          -1000 -40 123 hlineto
          -20 -10 -12 -20 -45 vvcurveto
          -132 vlineto
          155 callgsubr
          239 vlineto
          16 -2 16 -4 14 vhcurveto
          156 hlineto
          66 13 -30 -45 hvcurveto
          -7 -24 callgsubr
        </CharString>
        <CharString name="dvC_CA">
          310 720 644 rmoveto
          -740 -40 595 -483 hlineto
          165 callsubr
          157 vlineto
          230 callgsubr
          -219 -40 53 hlineto
          0 -10 -32 -63 vvcurveto
          -157 vlineto
          -25 5 -22 9 -18 vhcurveto
          -9 -31 -38 -7 -44 hhcurveto
          -73 -28 24 57 hvcurveto
          157 vlineto
          226 callsubr
          86 40 -224 -40 93 hlineto
          0 -10 -32 -63 vvcurveto
          -157 vlineto
          -76 47 -47 99 50 62 13 13 30 vhcurveto
          -17 23 32 -9 44 hhcurveto
          38 30 6 9 25 hvcurveto
          -79 -52 callgsubr
        </CharString>
        <CharString name="dvC_CHA">
          379 664 -22 callgsubr
          125 228 77 callsubr
          -41 26 52 -17 88 hhcurveto
          132 52 37 103 hvcurveto
          209 vlineto
          60 -22 40 -56 12 326 callsubr
        </CharString>
        <CharString name="dvC_CH_VA">
          379 664 -22 callgsubr
          -52 -524 rmoveto
          -9 -32 -29 -3 -39 hhcurveto
          -75 -25 30 45 hvcurveto
          37 vlineto
          45 22 30 75 vhcurveto
          0 16 vlineto
          34 29 2 6 24 hvcurveto
          177 569 77 callsubr
          11 -18 17 -14 23 -9 rrcurveto
          -28 -20 -14 -31 -41 vvcurveto
          -37 vlineto
          -75 49 -41 95 39 33 4 8 28 vhcurveto
          -66 44 306 vlineto
          37 22 16 37 57 vvcurveto
          209 vlineto
          60 -22 40 -56 12 326 callsubr
        </CharString>
        <CharString name="dvC_MA">
          461 726 152 callgsubr
          -429 rmoveto
          -99 callgsubr
          332 258 rmoveto
          -891 -40 559 -178 212 callsubr
          -141 vlineto
          -21 3 -18 6 -15 vhcurveto
          -8 -30 -38 -7 -34 18 callgsubr
          44 58 13 9 26 vhcurveto
          -15 21 30 -8 41 83 callgsubr
        </CharString>
        <CharString name="dvC_NA">
          453 531 175 -103 callgsubr
          332 283 rmoveto
          -893 -40 748 311 callsubr
          -20 3 -18 6 -14 vhcurveto
          -10 -34 -40 -7 -38 18 callgsubr
          49 55 13 12 33 vhcurveto
          -17 21 30 -9 38 220 callsubr
          -53 callsubr
        </CharString>
        <CharString name="dvC_R">
          315 callsubr
          -198 -260 rmoveto
          19 callgsubr
          -157 vlineto
          -76 43 -47 110 18 16 1 2 14 vhcurveto
          -145 -126 318 callsubr
          40 vlineto
          -9 -33 -36 -5 -48 hhcurveto
          -85 -24 29 52 hvcurveto
          endchar
        </CharString>
        <CharString name="dvC_RA">
          65 -20 644 rmoveto
          -40 350 -449 vlineto
          165 callsubr
          123 51 callgsubr
          -123 263 callgsubr
          vhcurveto
          16 hlineto
          -164 -157 rlineto
          61 hlineto
          179 172 rlineto
          1 -113 -85 callsubr
          40 hlineto
          endchar
        </CharString>
        <CharString name="dvC_YA">
          371 636 -105 callgsubr
          145 40 rmoveto
          -801 -40 476 158 callgsubr
          -47 11 -35 18 -25 vhcurveto
          -10 -33 -44 -10 -45 302 callgsubr
          137 51 callgsubr
          -137 263 callgsubr
          70 59 22 9 26 vhcurveto
          -23 34 46 -7 46 -7 callsubr
        </CharString>
        <CharString name="dvCandrabindu">
          -390 -136 846 rmoveto
          -19 9 -14 24 126 callsubr
          vhcurveto
          138 -27 rmoveto
          35 callsubr
          1 vlineto
          endchar
        </CharString>
        <CharString name="dvD">
          7 437 77 callgsubr
          -338 405 rmoveto
          -37 callsubr
          184 vlineto
          235 callgsubr
          -437 -40 292 -100 -85 238 callgsubr
          endchar
        </CharString>
        <CharString name="dvDA">
          7 47 203 rmoveto
          -37 callsubr
          184 vlineto
          235 callgsubr
          -437 -40 292 -100 -85 238 callgsubr
          endchar
        </CharString>
        <CharString name="dvDA_mvR">
          7 317 198 callsubr
          -437 -40 292 -100 -85 102 callsubr
          -114 vlineto
          -79 57 -47 95 40 24 3 7 29 vhcurveto
          -58 vlineto
          1 -9 -9 0 -7 hhcurveto
          -75 -52 -30 -95 -95 57 -30 75 26 14 1 4 27 hvcurveto
          45 vlineto
          -3 -23 -22 -2 -22 hhcurveto
          -45 -45 5 75 75 40 5 45 14 33 -2 -3 20 hvcurveto
          248 13 callsubr
          114 130 callsubr
        </CharString>
        <CharString name="dvDD">
          17 320 77 callgsubr
          84 361 -12 callgsubr
        </CharString>
        <CharString name="dvDDA">
          17 352 159 -12 callgsubr
        </CharString>
        <CharString name="dvDDH">
          10 326 77 callgsubr
          -74 706 rmoveto
          20 callsubr
          -265 290 callgsubr
          -14 callsubr
          115 289 callgsubr
          hlineto
          endchar
        </CharString>
        <CharString name="dvDDHA">
          10 200 504 rmoveto
          20 callsubr
          -265 290 callgsubr
          -14 callsubr
          115 289 callgsubr
          hlineto
          endchar
        </CharString>
        <CharString name="dvDDH_DDHA">
          10 315 462 281 callsubr
          -168 vlineto
          -47 16 -36 34 -21 vhcurveto
          -34 -20 -16 -33 -45 vvcurveto
          -156 290 callgsubr
          14 126 callgsubr
          -14 vlineto
          -48 -20 -37 -80 -80 -20 37 48 vhcurveto
          156 -32 callgsubr
          5 hlineto
          340 callgsubr
          hvcurveto
          16 126 callgsubr
          -16 vlineto
          -48 -20 -37 -80 -80 -20 37 48 vhcurveto
          168 130 callsubr
        </CharString>
        <CharString name="dvDDH_R">
          10 188 -159 123 callgsubr
          85 621 49 callgsubr
        </CharString>
        <CharString name="dvDDH_RA">
          10 315 462 49 callgsubr
        </CharString>
        <CharString name="dvDDH_VA">
          20 284 -85 rmoveto
          196 callgsubr
          42 vlineto
          45 22 30 75 vhcurveto
          0 4 vlineto
          32 26 5 9 21 hvcurveto
          31 356 rmoveto
          142 115 40 -450 105 callgsubr
          -168 vlineto
          -47 16 -36 34 -21 vhcurveto
          -34 -20 -17 -33 295 callsubr
          43 330 vlineto
          16 20 7 27 32 vvcurveto
          16 126 callgsubr
          -16 vlineto
          -48 -20 -37 -80 -80 -20 37 48 vhcurveto
          168 130 callsubr
        </CharString>
        <CharString name="dvDDH_YA">
          476 741 7 callsubr
          17 254 callgsubr
          -175 100 426 hlineto
          186 callgsubr
          -906 -40 290 -100 -70 238 callgsubr
          -265 290 callgsubr
          -14 callsubr
          290 hlineto
          66 13 -30 -45 hvcurveto
          -17 -24 callgsubr
        </CharString>
        <CharString name="dvDDHxA">
          10 200 504 rmoveto
          125 callsubr
          115 289 callgsubr
          hlineto
          -100 -636 rmoveto
          -19 9 -14 24 126 callsubr
          vhcurveto
          endchar
        </CharString>
        <CharString name="dvDD_DDA">
          22 328 463 65 callgsubr
          13 -3 15 -2 15 -3 rrcurveto
          -18 -17 -11 -25 -34 vvcurveto
          -75 45 -31 85 vhcurveto
          42 hlineto
          65 20 -19 -45 hvcurveto
          -18 vlineto
          -55 -22 -19 -85 -40 -59 7 11 -51 vhcurveto
          -42 vlineto
          -10 44 53 -8 53 hhcurveto
          256 callsubr
          0 20 vlineto
          282 callsubr
          hvcurveto
          4 vlineto
          45 20 18 65 vhcurveto
          endchar
        </CharString>
        <CharString name="dvDD_DDHA">
          22 328 463 65 callgsubr
          16 -3 18 -3 19 -3 rrcurveto
          -23 -20 -13 -28 -35 vvcurveto
          -156 290 callgsubr
          14 126 callgsubr
          -14 vlineto
          -48 -20 -37 -80 -80 -20 37 48 vhcurveto
          156 -32 callgsubr
          0 7 vlineto
          256 callsubr
          endchar
        </CharString>
        <CharString name="dvDD_R">
          17 181 -159 123 callgsubr
          100 622 45 callgsubr
        </CharString>
        <CharString name="dvDD_RA">
          17 323 463 45 callgsubr
        </CharString>
        <CharString name="dvDD_VA">
          22 108 17 rmoveto
          45 22 30 75 33 28 3 7 22 vhcurveto
          -187 vlineto
          196 callgsubr
          220 488 65 callgsubr
          16 -3 18 -3 19 -3 rrcurveto
          -21 -20 -10 -28 -35 156 callgsubr
          43 317 vlineto
          18 19 8 26 36 vvcurveto
          202 callgsubr
          hvcurveto
          4 vlineto
          45 20 18 65 vhcurveto
          endchar
        </CharString>
        <CharString name="dvDD_YA">
          481 746 7 callsubr
          18 254 callgsubr
          -172 99 423 hlineto
          186 callgsubr
          -911 -40 298 -99 -83 hlineto
          -95 -45 -40 -75 hvcurveto
          29 callgsubr
          300 hlineto
          66 13 -30 -45 hvcurveto
          -18 -24 callgsubr
        </CharString>
        <CharString name="dvDDxA">
          17 170 -132 rmoveto
          -19 9 -14 24 126 callsubr
          vhcurveto
          182 291 -12 callgsubr
        </CharString>
        <CharString name="dvDH">
          -92 383 127 rmoveto
          -8 -28 -57 -13 68 callgsubr
          79 40 -229 -40 105 hlineto
          102 callgsubr
          51 54 12 9 31 vhcurveto
          endchar
        </CharString>
        <CharString name="dvDHA">
          99 85 604 rmoveto
          102 callgsubr
          51 35 6 9 31 337 callsubr
          -145 29 callsubr
          -259 -40 hlineto
          endchar
        </CharString>
        <CharString name="dvDH_MA">
          479 744 152 callgsubr
          -429 rmoveto
          -99 callgsubr
          -224 258 rmoveto
          -40 224 -178 211 callsubr
          -141 vlineto
          -20 3 -17 5 -15 vhcurveto
          -7 -30 -41 -7 -38 hhcurveto
          -82 -50 25 75 hvcurveto
          55 111 callgsubr
          79 40 -229 -40 105 99 callsubr
          -55 vlineto
          -102 77 -40 100 50 53 12 9 32 vhcurveto
          -17 20 31 -8 42 219 callgsubr
          211 142 -386 -23 callsubr
        </CharString>
        <CharString name="dvDH_NA">
          471 549 175 -103 callgsubr
          -231 283 rmoveto
          -40 418 310 callgsubr
          vlineto
          179 callgsubr
          -191 vlineto
          -21 3 -18 7 -14 vhcurveto
          -8 -31 -43 -8 -37 -18 callgsubr
          79 40 -229 -40 105 hlineto
          102 callgsubr
          50 56 14 9 32 vhcurveto
          -16 20 29 -8 37 220 callsubr
          -46 callgsubr
          40 hlineto
          endchar
        </CharString>
        <CharString name="dvDH_N_YA">
          769 1034 16 callsubr
          181 58 callgsubr
          630 293 rmoveto
          -831 -40 506 122 callgsubr
          -66 -3 vhcurveto
          63 -3 -52 22 -80 hhcurveto
          -167 hlineto
          179 callgsubr
          -181 vlineto
          -22 4 -18 6 -15 vhcurveto
          -8 -32 -42 -6 -37 -18 callgsubr
          79 40 -229 -40 105 hlineto
          102 callgsubr
          50 59 11 10 31 vhcurveto
          -15 21 28 -7 35 220 callsubr
          176 284 callgsubr
          55 43 -9 -41 hvcurveto
          -123 vlineto
          -92 callsubr
        </CharString>
        <CharString name="dvDH_R">
          -92 115 264 294 callsubr
          73 166 callgsubr
          -229 -40 105 99 callsubr
          -38 vlineto
          -105 74 -39 108 20 20 1 3 20 vhcurveto
          -149 -130 318 callsubr
          38 vlineto
          -4 -44 -24 -5 -54 hhcurveto
          -90 -51 25 77 hvcurveto
          endchar
        </CharString>
        <CharString name="dvDH_RA">
          99 364 644 rmoveto
          -503 322 callsubr
          31 -49 callgsubr
          78 220 callgsubr
          109 40 -258 -40 104 hlineto
          132 callsubr
        </CharString>
        <CharString name="dvDH_VA">
          328 593 -81 callgsubr
          -261 195 -29 callsubr
          -229 -40 105 hlineto
          304 callgsubr
          -53 vlineto
          -45 10 -36 48 -16 vhcurveto
          94 callgsubr
        </CharString>
        <CharString name="dvDH_YA">
          389 654 -105 callgsubr
          -322 40 23 callgsubr
          -229 -40 105 hlineto
          304 callgsubr
          -53 vlineto
          -45 10 -36 48 -16 vhcurveto
          94 callsubr
        </CharString>
        <CharString name="dvD_BA">
          17 300 28 rmoveto
          -9 -1 -8 -1 -8 vhcurveto
          -167 127 rlineto
          11 15 22 6 32 hhcurveto
          32 52 6 4 16 hvcurveto
          -197 -90 rmoveto
          12 2 11 3 10 vhcurveto
          173 -131 rlineto
          -15 -15 -25 -9 -39 hhcurveto
          -78 -21 35 48 hvcurveto
          222 434 rmoveto
          142 102 40 -447 -40 300 -100 -85 102 callsubr
          -123 vlineto
          -45 18 -33 35 -19 vhcurveto
          -34 -21 -16 -35 -44 vvcurveto
          -39 vlineto
          -78 46 -47 98 98 42 47 78 vhcurveto
          308 -42 -137 vlineto
          -4 -23 -46 -6 -31 hhcurveto
          -75 -25 30 45 hvcurveto
          123 130 callsubr
        </CharString>
        <CharString name="dvD_BHA">
          89 217 -24 rmoveto
          13 -18 4 -25 -35 -26 -38 -27 -22 13 -12 18 -17 22 rcurveline
          -13 19 -4 24 35 26 46 33 rcurveline
          223 427 rmoveto
          142 102 40 -519 -40 372 -100 -85 102 callsubr
          -94 vlineto
          -79 57 -47 95 vhcurveto
          17 hlineto
          -110 -80 -53 74 -29 41 -45 3 -47 -35 rlinecurve
          -49 -34 -11 -44 29 -41 17 -21 rcurveline
          32 23 -16 23 -12 17 -2 22 34 25 rlinecurve
          33 24 19 -8 14 -18 53 -73 rcurveline
          -46 -34 -50 -37 -9 -45 29 -39 rlinecurve
          17 -23 29 -41 46 -7 52 36 rlinecurve
          50 38 7 46 -28 41 -43 59 rcurveline
          164 118 rlineto
          1 -117 42 258 -42 -99 hlineto
          -7 -32 -21 -3 -40 hhcurveto
          -75 -32 33 51 hvcurveto
          94 130 callsubr
        </CharString>
        <CharString name="dvD_B_RA">
          17 301 115 rmoveto
          -10 -1 -10 -2 -9 vhcurveto
          -165 105 rlineto
          10 15 22 6 30 hhcurveto
          38 46 9 6 17 hvcurveto
          -198 -95 rmoveto
          12 2 12 4 10 vhcurveto
          170 -107 rlineto
          -14 -15 -24 -8 -38 hhcurveto
          -78 -21 35 48 hvcurveto
          222 347 rmoveto
          142 102 40 -447 -40 300 -100 -85 102 callsubr
          -63 vlineto
          -45 18 -33 35 -19 vhcurveto
          -33 -21 -16 -35 -44 vvcurveto
          -12 vlineto
          -78 45 -46 98 vhcurveto
          9 hlineto
          -114 -104 rlineto
          65 hlineto
          139 129 rlineto
          -75 41 405 -41 -82 vlineto
          -7 -20 -36 -8 -45 hhcurveto
          -75 -25 30 45 hvcurveto
          63 130 callsubr
        </CharString>
        <CharString name="dvD_DA">
          15 325 198 callsubr
          -445 -40 300 -100 -85 102 callsubr
          -13 vlineto
          -44 15 -33 32 -19 vhcurveto
          -32 -19 -15 -33 -44 vvcurveto
          -55 vlineto
          -75 56 -42 95 39 25 6 8 30 vhcurveto
          -91 42 228 -42 -95 vlineto
          -7 -25 -30 -7 -39 hhcurveto
          -75 -31 30 45 hvcurveto
          55 -32 callgsubr
          85 42 -85 hlineto
          -75 -20 30 45 hvcurveto
          13 130 callsubr
        </CharString>
        <CharString name="dvD_DHA">
          146 456 198 callsubr
          -576 -40 431 -100 -85 102 callsubr
          -184 vlineto
          285 callsubr
          9 vlineto
          265 callsubr
          14 38 -14 hlineto
          103 callsubr
        </CharString>
        <CharString name="dvD_GA">
          15 325 198 callsubr
          -445 -40 300 -100 -85 102 callsubr
          -144 vlineto
          -62 35 -43 62 -15 vhcurveto
          -81 267 callsubr
          75 11 vlineto
          40 24 3 7 29 hvcurveto
          -287 42 448 -42 -119 -30 callgsubr
          144 130 callsubr
        </CharString>
        <CharString name="dvD_GHA">
          146 47 63 rmoveto
          265 callsubr
          68 -96 hlineto
          285 callsubr
          409 408 338 callgsubr
          -576 -40 431 -100 -85 102 callsubr
          -50 -68 vlineto
          103 callsubr
        </CharString>
        <CharString name="dvD_G_RA">
          17 325 198 callsubr
          -445 -40 300 -100 -85 102 callsubr
          -105 vlineto
          -62 35 -43 62 -15 vhcurveto
          -60 267 callsubr
          54 11 vlineto
          40 24 3 7 29 hvcurveto
          -121 vlineto
          -202 -205 rlineto
          59 hlineto
          40 41 rlineto
          75 75 29 36 0 vvcurveto
          -1 vlineto
          0 -1 -34 -28 vvcurveto
          -49 42 458 -42 -130 -30 callgsubr
          105 130 callsubr
        </CharString>
        <CharString name="dvD_MA">
          224 489 136 rmoveto
          -154 197 -43 -97 hlineto
          -4 -16 -38 -8 -43 hhcurveto
          -75 -28 30 45 hvcurveto
          88 -32 callgsubr
          130 142 172 hlineto
          186 callgsubr
          -654 -40 292 -100 -85 238 callgsubr
          -88 vlineto
          -75 53 -42 95 45 32 8 6 20 vhcurveto
          -145 43 45 154 -96 -52 callgsubr
        </CharString>
        <CharString name="dvD_NA">
          7 317 198 callsubr
          -437 -40 292 -100 -85 102 callsubr
          -164 vlineto
          -79 57 -47 95 vhcurveto
          7 hlineto
          -100 -69 -61 -42 -1 -44 27 -34 rlinecurve
          19 -24 40 -5 0 vvcurveto
          33 26 rlineto
          0 -37 7 -15 18 vhcurveto
          -19 25 9 21 35 24 156 106 rcurveline
          -116 42 268 -42 -109 -30 callgsubr
          164 130 callsubr
        </CharString>
        <CharString name="dvD_R">
          5 332 -10 rmoveto
          168 callsubr
          154 vlineto
          235 callgsubr
          -437 -40 292 -100 -85 238 callgsubr
          -154 vlineto
          -79 57 -47 95 vhcurveto
          9 8 0 8 hhcurveto
          -171 -177 rlineto
          59 hlineto
          180 187 rlineto
          -127 vlineto
          45 -53 rmoveto
          -42 hlineto
          253 callsubr
          endchar
        </CharString>
        <CharString name="dvD_RA">
          5 317 198 callsubr
          -437 -40 292 -100 -85 102 callsubr
          -154 78 callsubr
          154 130 callsubr
        </CharString>
        <CharString name="dvD_VA">
          17 300 231 callsubr
          25 301 rmoveto
          142 102 40 -447 -40 300 -100 -85 102 callsubr
          137 callsubr
        </CharString>
        <CharString name="dvD_YA">
          84 494 644 rmoveto
          -514 -40 193 -80 hlineto
          -59 -53 -25 -75 hvcurveto
          -31 -47 callgsubr
          -15 vlineto
          -102 70 -29 99 50 41 8 7 34 vhcurveto
          -70 -85 callsubr
          vlineto
          -145 hmoveto
          -493 vlineto
          -7 -28 -48 -8 -48 hhcurveto
          -80 -45 15 75 hvcurveto
          15 254 callsubr
          30 42 -30 hlineto
          -75 1 -16 29 45 vvcurveto
          27 vlineto
          56 33 9 54 vhcurveto
          25 119 hlineto
          endchar
        </CharString>
        <CharString name="dvE">
          33 346 57 rmoveto
          -8 -23 -48 -12 -49 hhcurveto
          -80 -26 31 50 hvcurveto
          486 187 callgsubr
          -485 vlineto
          -85 53 -39 98 51 47 10 10 22 vhcurveto
          endchar
        </CharString>
        <CharString name="dvEcandra">
          33 324 832 rmoveto
          35 callsubr
          1 vlineto
          -25 -775 rmoveto
          -8 -23 -49 -12 -49 hhcurveto
          -72 -28 30 45 hvcurveto
          492 187 callgsubr
          -492 vlineto
          343 callsubr
          endchar
        </CharString>
        <CharString name="dvEight">
          36 callsubr
        </CharString>
        <CharString name="dvEyelash">
          -151 -20 604 rmoveto
          354 40 -354 hlineto
          354 -321 rmoveto
          -157 hlineto
          -75 -40 -5 55 hvcurveto
          -42 -1 hlineto
          -84 62 -5 95 vhcurveto
          157 hlineto
          endchar
        </CharString>
        <CharString name="dvEyelash_HA">
          222 534 242 callgsubr
          98 40 -652 -40 509 -100 -98 vlineto
          241 callgsubr
          -13 -78 vlineto
          313 callsubr
          83 hlineto
          8 -25 16 -17 25 -11 rrcurveto
          -38 -16 -19 -31 -46 vvcurveto
          -65 vlineto
          -79 49 -51 114 42 48 4 7 40 vhcurveto
          41 vlineto
          -8 -48 -39 -2 -43 hhcurveto
          -94 -24 39 49 33 callgsubr
        </CharString>
        <CharString name="dvEyelash_YA">
          281 546 247 callsubr
          66 vlineto
          81 53 33 84 hvcurveto
          93 175 callsubr
          -566 40 rmoveto
          -40 386 vlineto
          -88 callsubr
          -93 24 callgsubr
          -74 hlineto
          313 callsubr
          54 -68 hlineto
          97 callgsubr
          vlineto
          endchar
        </CharString>
        <CharString name="dvFive">
          106 callsubr
        </CharString>
        <CharString name="dvFour">
          188 callgsubr
        </CharString>
        <CharString name="dvG">
          -138 181 604 rmoveto
          91 40 -292 -40 256 callgsubr
          hlineto
          -95 callgsubr
          endchar
        </CharString>
        <CharString name="dvGA">
          86 496 644 rmoveto
          -516 -40 256 callgsubr
          hlineto
          -95 callgsubr
          289 249 callgsubr
        </CharString>
        <CharString name="dvGH">
          -106 384 125 rmoveto
          -5 -17 -68 -14 333 callsubr
          51 -49 callgsubr
          78 220 callgsubr
          236 40 -385 134 callsubr
          50 62 13 6 23 vhcurveto
          endchar
        </CharString>
        <CharString name="dvGHA">
          99 509 644 rmoveto
          -529 134 callsubr
          50 42 9 6 23 vhcurveto
          -80 -85 callsubr
          vlineto
          -145 hmoveto
          -483 322 callsubr
          51 -49 callgsubr
          78 220 callgsubr
          endchar
        </CharString>
        <CharString name="dvGH_MA">
          479 744 118 callgsubr
          -141 vlineto
          -22 3 -19 7 -15 vhcurveto
          -6 -31 -44 -7 -34 239 callsubr
          51 -49 callgsubr
          78 220 callgsubr
          428 163 callsubr
          332 258 rmoveto
          -909 134 callsubr
          48 63 13 6 26 vhcurveto
          -14 21 29 -7 39 83 callgsubr
        </CharString>
        <CharString name="dvGH_NA">
          471 736 142 callgsubr
          -191 vlineto
          -22 4 -19 7 -16 vhcurveto
          -5 -31 -45 -7 -34 239 callsubr
          51 -49 callgsubr
          78 220 callgsubr
          607 hlineto
          -187 -429 -103 callgsubr
          332 283 rmoveto
          -901 134 callsubr
          49 67 13 6 24 vhcurveto
          -14 20 28 -7 34 220 callsubr
          -53 callsubr
        </CharString>
        <CharString name="dvGH_R">
          -102 383 604 rmoveto
          40 -403 -40 104 vlineto
          291 callsubr
          -78 -47 callgsubr
          -33 vlineto
          -105 74 -39 108 20 20 1 3 20 vhcurveto
          -149 -130 318 callsubr
          38 vlineto
          -4 -44 -24 -5 -54 hhcurveto
          -90 -51 25 77 hvcurveto
          33 -49 callgsubr
          78 220 callgsubr
          endchar
        </CharString>
        <CharString name="dvGH_RA">
          99 115 259 294 callsubr
          78 220 callgsubr
          235 -463 hlineto
          275 callsubr
          -135 416 rmoveto
          -40 104 vlineto
          132 callsubr
        </CharString>
        <CharString name="dvGH_YA">
          389 654 -105 callgsubr
          -539 -325 294 callsubr
          58 220 callgsubr
          345 158 callgsubr
          -44 9 -33 16 -24 vhcurveto
          -8 -37 -50 -8 -37 239 callsubr
          684 406 rmoveto
          -819 -40 104 hlineto
          291 callsubr
          -58 -47 callgsubr
          -41 278 callgsubr
          49 69 12 11 37 vhcurveto
          -25 35 48 -8 49 -7 callsubr
        </CharString>
        <CharString name="dvG_BA">
          278 356 346 -44 callgsubr
          142 195 rmoveto
          -708 -40 256 callgsubr
          hlineto
          -95 callgsubr
          289 365 -113 vlineto
          197 callgsubr
          -190 vlineto
          95 callgsubr
        </CharString>
        <CharString name="dvG_BHA">
          442 181 604 rmoveto
          78 40 -279 -40 256 callgsubr
          hlineto
          -95 callgsubr
          339 -140 50 callsubr
          40 vmoveto
          212 callsubr
          -101 -47 callsubr
          171 142 -346 -85 callsubr
          40 -145 -20 callgsubr
          endchar
        </CharString>
        <CharString name="dvG_BH_YA">
          726 -20 604 rmoveto
          256 callgsubr
          hlineto
          -95 callgsubr
          289 71 40 -272 vlineto
          1011 -505 -17 callsubr
        </CharString>
        <CharString name="dvG_DA">
          267 577 198 callsubr
          -697 -40 256 callgsubr
          vlineto
          -95 callgsubr
          289 351 -100 -85 102 callsubr
          -184 224 callsubr
          184 130 callsubr
        </CharString>
        <CharString name="dvG_DHA">
          360 625 644 167 callsubr
          -520 -40 256 callgsubr
          hlineto
          -95 callgsubr
          289 165 vlineto
          0 -9 -25 -50 vvcurveto
          -73 vlineto
          -45 10 -36 48 -16 vhcurveto
          233 callgsubr
        </CharString>
        <CharString name="dvG_DH_VA">
          589 854 -81 callgsubr
          -261 195 -29 callsubr
          -490 -40 256 callgsubr
          hlineto
          -95 callgsubr
          289 165 vlineto
          304 callgsubr
          -53 vlineto
          -45 10 -36 48 -16 vhcurveto
          94 callgsubr
        </CharString>
        <CharString name="dvG_DH_YA">
          650 915 -105 callgsubr
          -322 40 23 callgsubr
          -490 -40 256 callgsubr
          hlineto
          -95 callgsubr
          289 165 vlineto
          304 callgsubr
          -53 vlineto
          -45 10 -36 48 -16 vhcurveto
          94 callsubr
        </CharString>
        <CharString name="dvG_GA">
          316 726 644 rmoveto
          -746 -40 256 callgsubr
          hlineto
          -95 callgsubr
          289 185 -289 vlineto
          -95 callgsubr
          289 249 callgsubr
        </CharString>
        <CharString name="dvG_GHA">
          360 625 121 rmoveto
          275 callsubr
          51 -49 callgsubr
          78 220 callgsubr
          235 hlineto
          186 callgsubr
          -790 -40 256 callgsubr
          hlineto
          -95 callgsubr
          289 164 vlineto
          291 callsubr
          -78 -47 callgsubr
          -51 278 callgsubr
          50 42 9 6 23 vhcurveto
          -80 -52 callgsubr
        </CharString>
        <CharString name="dvG_JA">
          401 811 644 rmoveto
          -831 -40 256 callgsubr
          hlineto
          -95 callgsubr
          289 485 -125 -316 -40 113 vlineto
          -102 callgsubr
          158 -439 67 callsubr
        </CharString>
        <CharString name="dvG_LA">
          481 891 644 rmoveto
          -911 -40 256 callgsubr
          hlineto
          -95 callgsubr
          289 565 -144 vlineto
          11 -27 -21 5 -32 15 callsubr
          28 28 -5 -11 24 vhcurveto
          -418 45 604 100 vlineto
          endchar
        </CharString>
        <CharString name="dvG_MA">
          427 692 152 callgsubr
          -429 rmoveto
          -99 callgsubr
          332 258 rmoveto
          -857 -40 256 callgsubr
          hlineto
          -95 callgsubr
          289 324 -178 -82 vlineto
          -90 -37 -35 -75 hvcurveto
          67 callgsubr
        </CharString>
        <CharString name="dvG_NA">
          434 512 175 -103 callgsubr
          332 283 rmoveto
          -864 -40 256 callgsubr
          hlineto
          -95 callgsubr
          289 518 310 callgsubr
          vlineto
          -80 -43 -35 -75 hvcurveto
          33 callsubr
        </CharString>
        <CharString name="dvG_NNA">
          474 546 245 -13 callgsubr
          338 40 rmoveto
          -904 -40 256 callgsubr
          hlineto
          -95 callgsubr
          289 140 127 callsubr
          359 149 -604 44 -39 callgsubr
        </CharString>
        <CharString name="dvG_N_YA">
          722 987 16 callsubr
          181 58 callgsubr
          630 293 rmoveto
          -1152 -40 256 callgsubr
          hlineto
          -95 callgsubr
          289 626 vlineto
          88 callsubr
        </CharString>
        <CharString name="dvG_R">
          109 callsubr
          endchar
        </CharString>
        <CharString name="dvG_RA">
          81 491 644 rmoveto
          -511 -40 156 -249 hlineto
          -95 callgsubr
          249 165 -337 vlineto
          -263 -267 rlineto
          61 hlineto
          99 101 rlineto
          75 75 29 31 0 0 -1 -35 -78 vvcurveto
          -94 -52 callgsubr
        </CharString>
        <CharString name="dvG_R_YA">
          362 627 -105 callgsubr
          145 40 rmoveto
          -792 -40 256 callgsubr
          hlineto
          -95 callgsubr
          289 266 48 callgsubr
          -11 vlineto
          -238 -242 rlineto
          61 hlineto
          110 113 36 37 24 26 14 17 rlinecurve
          -87 24 77 -21 80 -7 callsubr
        </CharString>
        <CharString name="dvG_SA">
          461 726 271 callsubr
          148 hlineto
          186 callgsubr
          -891 -40 256 callgsubr
          hlineto
          -95 callgsubr
          289 352 -48 callgsubr
          171 -297 -85 callsubr
          hlineto
          endchar
        </CharString>
        <CharString name="dvG_VA">
          291 556 -81 callgsubr
          145 195 rmoveto
          -721 -40 256 callgsubr
          hlineto
          -95 callgsubr
          289 375 -113 vlineto
          4 -9 -41 10 -49 hhcurveto
          -95 -51 -50 -74 hvcurveto
          -182 -37 callgsubr
        </CharString>
        <CharString name="dvG_YA">
          362 627 -105 callgsubr
          145 40 rmoveto
          -792 -40 256 callgsubr
          hlineto
          -95 callgsubr
          289 179 callsubr
        </CharString>
        <CharString name="dvGx">
          -138 181 604 rmoveto
          91 40 -292 -40 256 callgsubr
          hlineto
          -95 callgsubr
          -137 -239 rmoveto
          -19 9 -14 24 126 callsubr
          vhcurveto
          endchar
        </CharString>
        <CharString name="dvGxA">
          86 99 103 rmoveto
          -44 callsubr
          -103 callsubr
          hvcurveto
          397 541 rmoveto
          -516 -40 256 callgsubr
          hlineto
          -95 callgsubr
          289 249 callgsubr
        </CharString>
        <CharString name="dvGx_R">
          109 callsubr
          79 -384 rmoveto
          -19 9 -14 24 126 callsubr
          vhcurveto
          endchar
        </CharString>
        <CharString name="dvGx_RA">
          81 263 -30 rmoveto
          -44 callsubr
          -103 callsubr
          hvcurveto
          228 674 rmoveto
          -511 -40 156 -249 hlineto
          -95 callgsubr
          249 165 -337 vlineto
          -263 -267 rlineto
          61 hlineto
          99 101 rlineto
          75 75 29 31 0 0 -1 -35 -78 vvcurveto
          -94 -52 callgsubr
        </CharString>
        <CharString name="dvH">
          22 339 77 callgsubr
          -236 327 rmoveto
          -79 58 -51 114 320 callsubr
          vhcurveto
          41 vlineto
          -11 -36 -32 -4 -53 hhcurveto
          -94 -33 35 53 -36 callgsubr
          endchar
        </CharString>
        <CharString name="dvHA">
          22 51 125 rmoveto
          -79 58 -51 114 320 callsubr
          vhcurveto
          41 vlineto
          -11 -36 -32 -4 -53 hhcurveto
          -94 -33 35 53 -36 callgsubr
          endchar
        </CharString>
        <CharString name="dvHA_mU">
          22 276 -5 rmoveto
          60 6 -25 -39 -39 -5 -25 -65 hvcurveto
          331 callsubr
          -65 hlineto
          292 callsubr
          -29 33 -82 hvcurveto
          -62 hlineto
          -94 -24 39 49 -36 callgsubr
          -65 vlineto
          -79 49 -51 114 vhcurveto
          endchar
        </CharString>
        <CharString name="dvHA_mUU">
          22 360 -20 rmoveto
          35 -30 -28 22 -70 hhcurveto
          -18 hlineto
          -94 -24 39 49 -36 callgsubr
          -65 vlineto
          -55 24 -39 52 -18 vhcurveto
          -27 -14 -11 -24 -44 vvcurveto
          -73 27 -35 84 vhcurveto
          92 44 -92 hlineto
          -60 -6 25 39 39 5 25 65 hvcurveto
          323 callgsubr
          58 hlineto
          endchar
        </CharString>
        <CharString name="dvHA_mvR">
          57 96 202 rmoveto
          45 25 27 75 vhcurveto
          114 hlineto
          45 25 -6 -45 -45 -25 -5 -45 hvcurveto
          -7 hlineto
          -75 -40 -22 -70 -70 45 -22 85 36 41 6 9 36 hvcurveto
          40 vlineto
          -8 -37 -39 -5 -37 hhcurveto
          -55 -30 5 45 45 25 5 45 hvcurveto
          7 hlineto
          75 40 22 70 70 -40 23 -75 hvcurveto
          -116 hlineto
          -75 -20 27 45 hvcurveto
          1 vlineto
          45 17 28 75 vhcurveto
          183 142 93 40 -487 -40 349 -100 -138 hlineto
          241 callgsubr
          -1 32 callsubr
          -202 vlineto
          -79 58 -51 114 320 callsubr
          vhcurveto
          41 vlineto
          -11 -36 -32 -4 -53 hhcurveto
          -94 -33 35 53 hvcurveto
          endchar
        </CharString>
        <CharString name="dvH_LA">
          588 423 55 callsubr
        </CharString>
        <CharString name="dvH_MA">
          214 479 176 rmoveto
          -131 24 hlineto
          75 -36 39 -87 vhcurveto
          -21 hlineto
          -75 -20 27 45 hvcurveto
          3 vlineto
          45 17 28 75 vhcurveto
          143 142 135 hlineto
          186 callgsubr
          -644 -40 319 -100 -98 hlineto
          241 callgsubr
          -3 32 callsubr
          -75 308 callsubr
          75 vlineto
          45 25 27 75 vhcurveto
          19 hlineto
          70 10 -27 -45 hvcurveto
          -119 43 55 131 -136 -52 callgsubr
        </CharString>
        <CharString name="dvH_NA">
          532 797 142 callgsubr
          -62 -215 vlineto
          294 callgsubr
          463 hlineto
          -187 -429 -103 callgsubr
          332 283 rmoveto
          -962 -40 309 -100 -98 hlineto
          -95 -42 -40 -75 hvcurveto
          -13 65 callsubr
          213 -87 hlineto
          -43 callgsubr
        </CharString>
        <CharString name="dvH_NNA">
          604 676 245 -13 callgsubr
          -482 -300 rmoveto
          294 callgsubr
          117 -300 hlineto
          563 340 rmoveto
          -1034 -40 309 -100 -98 hlineto
          -95 -42 -40 -75 hvcurveto
          -13 65 callsubr
          255 -17 150 callsubr
          149 -604 44 -39 callgsubr
        </CharString>
        <CharString name="dvH_R">
          29 208 -58 123 callgsubr
          94 520 27 callgsubr
        </CharString>
        <CharString name="dvH_RA">
          29 344 462 27 callgsubr
        </CharString>
        <CharString name="dvH_VA">
          403 668 104 callgsubr
        </CharString>
        <CharString name="dvH_YA">
          198 463 153 rmoveto
          -5 -19 -29 -5 -37 hhcurveto
          -49 hlineto
          6 11 3 13 15 vvcurveto
          28 vlineto
          75 -36 39 -87 vhcurveto
          -21 hlineto
          -75 -20 27 45 hvcurveto
          3 vlineto
          45 17 28 75 vhcurveto
          143 132 129 hlineto
          186 callgsubr
          -628 -40 309 -90 -98 hlineto
          241 callgsubr
          -3 32 callsubr
          -85 308 callsubr
          85 vlineto
          45 25 27 75 vhcurveto
          19 hlineto
          70 8 -27 -45 hvcurveto
          -30 vlineto
          -25 -11 -12 -37 vhcurveto
          -41 133 vlineto
          41 28 5 5 16 hvcurveto
          -112 -52 callgsubr
        </CharString>
        <CharString name="dvI">
          3 97 171 rmoveto
          -42 -232 42 105 hlineto
          -6 28 32 -3 38 hhcurveto
          106 46 38 78 hvcurveto
          42 vlineto
          75 -45 41 -95 vhcurveto
          -22 hlineto
          -75 -20 29 45 hvcurveto
          6 98 callsubr
          133 142 95 40 -433 -40 293 -100 334 callgsubr
          -6 133 callgsubr
          22 hlineto
          75 20 -29 -45 hvcurveto
          -42 vlineto
          -48 -32 -26 -75 -39 -29 2 6 -30 vhcurveto
          endchar
        </CharString>
        <CharString name="dvII">
          3 318 462 24 callsubr
        </CharString>
        <CharString name="dvII_Anusvara">
          3 343 741 rmoveto
          -19 9 -14 24 126 callsubr
          vhcurveto
          -25 -279 24 callsubr
        </CharString>
        <CharString name="dvJ">
          -55 423 644 rmoveto
          -443 -40 443 hlineto
          1 -125 rmoveto
          -325 -40 113 hlineto
          -102 callgsubr
          167 hlineto
          endchar
        </CharString>
        <CharString name="dvJA">
          150 265 364 115 callsubr
        </CharString>
        <CharString name="dvJH">
          -3 192 25 rmoveto
          106 34 41 75 hvcurveto
          52 vlineto
          240 callgsubr
          188 41 -299 hlineto
          169 callsubr
          154 40 -507 -6 callgsubr
          endchar
        </CharString>
        <CharString name="dvJHA">
          198 195 267 rmoveto
          279 callsubr
          -50 42 callsubr
          50 298 callsubr
          -268 -85 callsubr
          40 -628 -40 300 -99 -88 317 callsubr
          -75 44 -41 95 vhcurveto
          -2 42 rmoveto
          194 callsubr
          -295 hlineto
          endchar
        </CharString>
        <CharString name="dvJH_MA">
          579 844 118 callgsubr
          -7 -260 vlineto
          169 callsubr
          324 163 callsubr
          332 258 rmoveto
          -1009 -6 callgsubr
          106 34 41 75 hvcurveto
          52 vlineto
          240 callgsubr
          149 -93 hlineto
          -12 callsubr
        </CharString>
        <CharString name="dvJH_NA">
          586 851 142 callgsubr
          -57 -275 vlineto
          169 callsubr
          518 hlineto
          -187 -429 -103 callgsubr
          332 283 rmoveto
          -1016 -6 callgsubr
          106 34 41 75 hvcurveto
          52 298 callsubr
          -93 hlineto
          -43 callgsubr
        </CharString>
        <CharString name="dvJH_R">
          34 516 183 rmoveto
          -260 -272 345 callgsubr
          49 62 0 vvcurveto
          -179 57 rmoveto
          240 callgsubr
          212 41 -322 hlineto
          -73 -19 29 45 hvcurveto
          300 callsubr
          171 141 148 40 -536 -40 343 -99 -126 317 callsubr
          -75 43 -41 95 vhcurveto
          5 hlineto
          279 callsubr
          -52 42 callsubr
          endchar
        </CharString>
        <CharString name="dvJH_RA">
          223 337 193 rmoveto
          240 callgsubr
          184 -114 hlineto
          -232 -243 345 callgsubr
          24 37 0 vvcurveto
          -1 vlineto
          0 -3 -20 -29 vvcurveto
          -61 -85 callsubr
          40 -653 -40 343 -99 -126 vlineto
          146 callgsubr
          -7 133 callgsubr
          3 hlineto
          279 callsubr
          -50 42 callsubr
          -140 320 rmoveto
          171 141 120 -295 -294 hlineto
          262 callsubr
          endchar
        </CharString>
        <CharString name="dvJH_YA">
          514 779 -105 callgsubr
          -306 -223 rmoveto
          -72 -285 vlineto
          169 callsubr
          266 hlineto
          -49 callsubr
          431 263 rmoveto
          -944 -6 callgsubr
          106 34 41 75 hvcurveto
          52 vlineto
          240 callgsubr
          174 -15 188 callsubr
        </CharString>
        <CharString name="dvJ_BA">
          362 440 346 -44 callgsubr
          142 195 rmoveto
          -792 -40 650 299 callgsubr
          -42 -34 -9 -17 -24 hvcurveto
          -342 -40 113 hlineto
          -102 callgsubr
          149 hlineto
          -7 -16 -4 -18 -20 vvcurveto
          -190 vlineto
          95 callgsubr
        </CharString>
        <CharString name="dvJ_DA">
          355 665 198 callsubr
          -785 -40 640 -100 -85 vlineto
          -43 -33 -9 -16 -23 hvcurveto
          -337 -40 113 hlineto
          -102 callgsubr
          147 hlineto
          -6 -15 -3 -17 -20 vvcurveto
          -184 224 callsubr
          184 130 callsubr
        </CharString>
        <CharString name="dvJ_DDA">
          351 657 336 callgsubr
          -781 -40 632 -99 -83 vlineto
          -47 -35 -10 -19 -23 hvcurveto
          3 -325 -40 113 vlineto
          -102 callgsubr
          140 hlineto
          -5 -14 -3 -17 -18 vvcurveto
          -25 callgsubr
        </CharString>
        <CharString name="dvJ_JA">
          515 925 644 rmoveto
          -945 -40 800 -125 -681 -40 113 hlineto
          -102 callgsubr
          320 140 callgsubr
        </CharString>
        <CharString name="dvJ_JHA">
          530 795 309 rmoveto
          -274 hlineto
          194 callsubr
          hlineto
          186 callgsubr
          -960 -40 632 -99 -88 hlineto
          -45 -33 -9 -17 -23 hvcurveto
          -324 -40 113 hlineto
          -102 callgsubr
          135 hlineto
          -5 -14 -3 -17 -18 vvcurveto
          -7 vlineto
          -75 44 -41 95 vhcurveto
          130 callgsubr
        </CharString>
        <CharString name="dvJ_J_NYA">
          569 424 439 rmoveto
          40 -325 -40 113 vlineto
          -102 callgsubr
          722 205 rmoveto
          -999 -40 854 -125 -326 -40 145 callgsubr
          159 -439 67 callsubr
        </CharString>
        <CharString name="dvJ_J_VA">
          740 1005 -81 callgsubr
          145 195 rmoveto
          -1170 -40 1025 160 callsubr
          -41 -33 -9 -17 -24 hvcurveto
          -709 -40 113 hlineto
          -102 callgsubr
          320 hlineto
          -102 callgsubr
          151 hlineto
          -9 -17 -4 -19 -22 vvcurveto
          -182 -37 callgsubr
        </CharString>
        <CharString name="dvJ_J_YA">
          811 1076 -105 callgsubr
          145 40 rmoveto
          -1241 -40 916 122 callgsubr
          -69 -3 vhcurveto
          73 -1 -38 25 -82 hhcurveto
          -592 -40 113 hlineto
          -102 callgsubr
          320 hlineto
          -102 callgsubr
          65 hlineto
          68 15 -11 -50 hvcurveto
          -125 vlineto
          -92 callsubr
        </CharString>
        <CharString name="dvJ_KA">
          524 934 604 rmoveto
          40 -954 -40 630 -479 vlineto
          -106 callgsubr
          -41 -32 -9 -16 -22 hvcurveto
          -338 -40 113 hlineto
          -102 callgsubr
          148 hlineto
          -7 -15 -3 -17 -20 vvcurveto
          -197 -71 callgsubr
        </CharString>
        <CharString name="dvJ_MA">
          511 776 152 callgsubr
          -429 rmoveto
          -99 callgsubr
          332 258 rmoveto
          -941 -40 609 339 callgsubr
          -16 -15 -1 -3 -13 hvcurveto
          41 -12 -46 16 -66 hhcurveto
          -240 -40 113 hlineto
          -102 callgsubr
          78 hlineto
          49 29 -8 -22 10 hvcurveto
          -30 -18 -13 -30 -45 147 callgsubr
        </CharString>
        <CharString name="dvJ_NA">
          534 612 175 -103 callgsubr
          332 283 rmoveto
          -964 -40 819 310 callgsubr
          hlineto
          -46 -33 -11 -24 -21 hvcurveto
          25 -18 -35 13 -50 hhcurveto
          -232 -40 113 hlineto
          -102 callgsubr
          70 hlineto
          64 20 -22 -42 hvcurveto
          0 vlineto
          -9 vlineto
          33 callsubr
        </CharString>
        <CharString name="dvJ_NY">
          -8 143 439 rmoveto
          145 callgsubr
          172 40 -339 hlineto
          -163 165 rmoveto
          -40 502 40 vlineto
          endchar
        </CharString>
        <CharString name="dvJ_NYA">
          204 -20 644 rmoveto
          -40 489 -125 -326 -40 121 vlineto
          6 callgsubr
          159 -439 -85 callsubr
          40 hlineto
          endchar
        </CharString>
        <CharString name="dvJ_NY_YA">
          500 765 324 callgsubr
          106 vlineto
          81 53 33 84 hvcurveto
          53 337 callgsubr
          159 hlineto
          186 callgsubr
          -930 -40 526 hlineto
          69 18 -30 -45 hvcurveto
          -53 299 callsubr
          67 -1 -64 11 -56 hhcurveto
          -237 -40 145 callgsubr
          66 hlineto
          57 26 -5 -50 hvcurveto
          -131 vlineto
          -138 78 -30 96 75 38 19 28 19 vhcurveto
          -132 -52 callgsubr
        </CharString>
        <CharString name="dvJ_R">
          -58 128 -45 78 callgsubr
        </CharString>
        <CharString name="dvJ_RA">
          151 418 439 73 callsubr
        </CharString>
        <CharString name="dvJ_TA">
          386 796 644 rmoveto
          -816 -40 671 237 callgsubr
          -42 -33 -9 -17 -24 hvcurveto
          -353 -40 113 hlineto
          -102 callgsubr
          161 hlineto
          -8 -16 -4 -19 -21 vvcurveto
          -268 vlineto
          -69 callgsubr
        </CharString>
        <CharString name="dvJ_TTA">
          340 660 462 305 callgsubr
          -770 -40 635 -100 -70 vlineto
          -43 -33 -9 -16 -23 hvcurveto
          -347 -40 113 hlineto
          -102 callgsubr
          157 hlineto
          -6 -15 -3 -17 -20 vvcurveto
          -258 40 callgsubr
          258 -32 callgsubr
          endchar
        </CharString>
        <CharString name="dvJ_VA">
          375 640 -81 callgsubr
          145 195 rmoveto
          -805 -40 660 160 callsubr
          -41 -33 -9 -17 -24 hvcurveto
          -344 -40 113 hlineto
          -102 callgsubr
          151 hlineto
          -9 -17 -4 -19 -22 vvcurveto
          -182 -37 callgsubr
        </CharString>
        <CharString name="dvJ_YA">
          446 711 139 14 callsubr
        </CharString>
        <CharString name="dvJx">
          -55 44 -63 rmoveto
          -19 9 -14 24 126 callsubr
          vhcurveto
          379 707 rmoveto
          -443 -40 443 hlineto
          1 -125 rmoveto
          -325 -40 113 hlineto
          -102 callgsubr
          167 hlineto
          endchar
        </CharString>
        <CharString name="dvJxA">
          150 -1 -43 rmoveto
          -19 9 -14 24 126 callsubr
          vhcurveto
          266 407 115 callsubr
        </CharString>
        <CharString name="dvJx_JxA">
          515 26 hmoveto
          -44 callsubr
          -103 callsubr
          hvcurveto
          365 hmoveto
          -44 callsubr
          -103 callsubr
          hvcurveto
          534 644 rmoveto
          -945 -40 800 -125 -681 -40 113 hlineto
          -102 callgsubr
          320 140 callgsubr
        </CharString>
        <CharString name="dvJx_R">
          -24 -1 18 rmoveto
          -19 9 -14 24 126 callsubr
          vhcurveto
          149 -63 78 callgsubr
        </CharString>
        <CharString name="dvJx_RA">
          170 26 vmoveto
          -19 9 -14 24 126 callsubr
          vhcurveto
          437 413 73 callsubr
        </CharString>
        <CharString name="dvJx_YA">
          446 26 -10 rmoveto
          -44 callsubr
          -103 callsubr
          hvcurveto
          685 149 14 callsubr
        </CharString>
        <CharString name="dvK">
          5 474 360 rmoveto
          45 26 hlineto
          59 callgsubr
          219 40 -549 -40 285 -479 vlineto
          -107 callsubr
          endchar
        </CharString>
        <CharString name="dvKA">
          179 265 26 callsubr
          endchar
        </CharString>
        <CharString name="dvKH">
          121 95 274 16 callgsubr
        </CharString>
        <CharString name="dvKHA">
          324 589 116 callgsubr
          -754 -40 272 hlineto
          0 13 -28 -47 vvcurveto
          -122 vlineto
          -61 -25 -37 -72 -25 -29 4 3 -19 vhcurveto
          124 -45 -268 -17 callgsubr
        </CharString>
        <CharString name="dvKH_KHA">
          863 1128 22 callsubr
          -709 -65 2 callsubr
          854 393 rmoveto
          -1293 -101 callsubr
          494 85 callgsubr
          -122 vlineto
          -61 -25 -37 -72 -25 -29 4 3 -19 vhcurveto
          71 107 callsubr
          335 callgsubr
          37 321 callgsubr
          -118 10 99 -37 117 hhcurveto
          55 53 8 7 34 hvcurveto
          44 vlineto
          -7 -30 -50 -9 -63 22 callgsubr
        </CharString>
        <CharString name="dvKH_MA">
          720 985 152 callgsubr
          -429 rmoveto
          -99 callgsubr
          -379 1 2 callsubr
          711 393 rmoveto
          -1150 -101 callsubr
          501 339 callgsubr
          -36 -27 -6 -11 -20 hvcurveto
          61 -8 -40 34 -81 53 callgsubr
          -85 40 -32 90 37 29 5 13 20 vhcurveto
          -60 8 38 -29 80 83 callgsubr
        </CharString>
        <CharString name="dvKH_NA">
          712 790 175 -103 callgsubr
          -371 26 2 callsubr
          703 393 rmoveto
          -1142 -101 callsubr
          680 310 callgsubr
          hlineto
          -40 -30 -9 -18 -21 hvcurveto
          36 -18 -38 19 -61 53 callgsubr
          -85 40 -32 90 37 29 5 13 21 vhcurveto
          -60 8 42 -29 71 220 callsubr
          -53 callsubr
        </CharString>
        <CharString name="dvKH_R">
          123 62 callsubr
          494 79 -2 callgsubr
        </CharString>
        <CharString name="dvKH_RA">
          324 589 116 callgsubr
          -754 -40 272 hlineto
          0 13 -28 -47 vvcurveto
          -122 vlineto
          -61 -25 -37 -72 -25 -29 4 3 -19 vhcurveto
          124 -45 -268 -27 callgsubr
        </CharString>
        <CharString name="dvKH_SHA">
          716 163 callgsubr
          242 40 -559 -87 callgsubr
          -85 callgsubr
          324 173 rmoveto
          280 callsubr
          70 15 -30 -45 vhcurveto
          -94 186 callsubr
          -26 -26 4 11 -43 vhcurveto
          28 107 callsubr
          -94 vlineto
          281 callgsubr
          36 321 callgsubr
          -18 vlineto
          -90 72 -48 95 51 32 7 9 30 vhcurveto
          -42 callsubr
        </CharString>
        <CharString name="dvKH_TA">
          569 419 387 2 callsubr
          560 393 rmoveto
          -999 -101 callsubr
          537 237 callgsubr
          -56 -40 -16 -29 -24 hvcurveto
          29 -20 -36 15 -54 53 callgsubr
          -85 40 -32 90 36 321 callgsubr
          -36 vlineto
          -69 callgsubr
        </CharString>
        <CharString name="dvKH_VA">
          569 834 -81 callgsubr
          -415 -62 2 callsubr
          560 393 rmoveto
          -999 -101 callsubr
          537 160 callsubr
          -55 -41 -17 -29 -24 hvcurveto
          29 -20 -36 16 -55 53 callgsubr
          -85 40 -32 90 40 30 6 15 21 vhcurveto
          -52 17 47 -29 76 47 callsubr
          vlineto
          endchar
        </CharString>
        <CharString name="dvKH_YA">
          630 895 -105 callgsubr
          -306 -353 rmoveto
          -45 -15 -30 -70 -70 -15 30 45 vhcurveto
          177 callsubr
          70 15 -30 -45 vhcurveto
          451 257 rmoveto
          -1060 -101 callsubr
          418 59 callsubr
          -22 328 callgsubr
          6 107 callsubr
          335 callgsubr
          48 34 9 21 21 vhcurveto
          -63 31 68 -16 71 -7 callsubr
        </CharString>
        <CharString name="dvKHx">
          123 32 -30 rmoveto
          -44 callsubr
          -103 callsubr
          hvcurveto
          63 304 16 callgsubr
        </CharString>
        <CharString name="dvKHxA">
          324 32 -30 rmoveto
          -44 callsubr
          -103 callsubr
          hvcurveto
          557 216 214 callsubr
          -754 -40 272 hlineto
          0 13 -28 -47 vvcurveto
          -122 vlineto
          -61 -25 -37 -72 -25 -29 4 3 -19 vhcurveto
          124 -45 -268 -17 callgsubr
        </CharString>
        <CharString name="dvKHx_MA">
          720 32 -30 rmoveto
          -44 callsubr
          -103 callsubr
          hvcurveto
          953 456 -4 callsubr
          -429 rmoveto
          -99 callgsubr
          -379 1 2 callsubr
          711 393 rmoveto
          -1150 -101 callsubr
          501 339 callgsubr
          -36 -27 -6 -11 -20 hvcurveto
          61 -8 -40 34 -81 53 callgsubr
          -85 40 -32 90 37 29 5 13 20 vhcurveto
          -60 8 38 -29 80 83 callgsubr
        </CharString>
        <CharString name="dvKHx_R">
          122 62 callsubr
          403 -149 rmoveto
          -44 callsubr
          -103 callsubr
          hvcurveto
          91 228 -2 callgsubr
        </CharString>
        <CharString name="dvKHx_RA">
          329 476 6 rmoveto
          -44 callsubr
          -103 callsubr
          hvcurveto
          113 180 214 callsubr
          -754 -40 272 hlineto
          0 13 -28 -47 vvcurveto
          -122 vlineto
          -61 -25 -37 -72 -25 -29 4 3 -19 vhcurveto
          124 -45 -268 -27 callgsubr
        </CharString>
        <CharString name="dvKHx_SA">
          724 32 -30 rmoveto
          -44 callsubr
          -103 callsubr
          hvcurveto
          957 367 rmoveto
          -147 hlineto
          -88 callgsubr
          148 hlineto
          -570 -217 2 callsubr
          715 393 rmoveto
          -1154 -101 callsubr
          499 hlineto
          -52 callsubr
          74 107 callsubr
          335 callgsubr
          36 321 callgsubr
          -18 -57 callgsubr
        </CharString>
        <CharString name="dvKHx_SHA">
          716 32 -30 rmoveto
          -44 callsubr
          -103 callsubr
          hvcurveto
          63 304 rmoveto
          -83 callgsubr
          228 40 -545 -87 callgsubr
          -85 callgsubr
          324 185 rmoveto
          280 callsubr
          70 15 -30 -45 vhcurveto
          -106 186 callsubr
          -25 -38 6 7 -32 vhcurveto
          42 107 callsubr
          -106 vlineto
          281 callgsubr
          36 321 callgsubr
          -18 vlineto
          -90 72 -48 95 185 callsubr
          vhcurveto
          42 vlineto
          -9 -35 -35 -7 -43 hhcurveto
          -75 -47 32 64 hvcurveto
          140 vlineto
          -9 30 29 -4 36 hhcurveto
          95 45 47 75 hvcurveto
          145 vlineto
          75 -45 47 -95 -95 -45 -47 -75 -17 3 -20 0 vhcurveto
          389 154 157 callgsubr
        </CharString>
        <CharString name="dvKHx_TA">
          569 32 -30 rmoveto
          -44 callsubr
          -103 callsubr
          hvcurveto
          387 417 2 callsubr
          560 393 rmoveto
          -999 -101 callsubr
          537 237 callgsubr
          -56 -40 -16 -29 -24 hvcurveto
          29 -20 -36 15 -54 53 callgsubr
          -85 40 -32 90 36 321 callgsubr
          -36 vlineto
          -69 callgsubr
        </CharString>
        <CharString name="dvKHx_VA">
          570 32 -30 rmoveto
          -44 callsubr
          -103 callsubr
          hvcurveto
          803 160 rmoveto
          -99 callsubr
          -246 -198 rmoveto
          -45 -15 -30 -70 -70 -15 30 45 vhcurveto
          177 callsubr
          70 15 -30 -45 vhcurveto
          391 257 rmoveto
          -1000 -101 callsubr
          538 160 callsubr
          -56 -40 -17 -29 -24 hvcurveto
          29 -20 -37 16 -55 53 callgsubr
          -85 40 -32 90 41 30 7 14 21 vhcurveto
          -52 16 48 -29 76 47 callsubr
          vlineto
          endchar
        </CharString>
        <CharString name="dvKHx_YA">
          631 32 -30 rmoveto
          -44 callsubr
          -103 callsubr
          hvcurveto
          864 169 -106 callsubr
          -307 -353 rmoveto
          -45 -15 -30 -70 -70 -15 30 45 vhcurveto
          177 callsubr
          70 15 -30 -45 vhcurveto
          452 257 rmoveto
          -1061 -101 callsubr
          419 309 callgsubr
          6 107 callsubr
          335 callgsubr
          48 34 9 22 21 vhcurveto
          -64 32 68 -16 71 -7 callsubr
        </CharString>
        <CharString name="dvK_CA">
          512 777 121 rmoveto
          165 callsubr
          78 vlineto
          230 callgsubr
          -199 hlineto
          62 -4 -30 42 -93 80 callgsubr
          467 338 callsubr
          -942 -40 285 -479 hlineto
          -107 callsubr
          -26 78 vlineto
          0 -10 -32 -63 vvcurveto
          -78 169 callgsubr
          vlineto
          endchar
        </CharString>
        <CharString name="dvK_DA">
          434 310 604 rmoveto
          389 -100 -85 hlineto
          -55 287 callsubr
          209 -106 218 callgsubr
          -864 -40 285 -479 hlineto
          -107 callsubr
          -183 224 callsubr
          endchar
        </CharString>
        <CharString name="dvK_JA">
          634 1044 644 rmoveto
          -1064 -40 285 -479 hlineto
          -107 callsubr
          -98 45 98 312 callgsubr
          589 -125 -296 -40 93 262 callgsubr
          -34 -27 4 7 -26 vhcurveto
          -43 vlineto
          -6 23 23 -4 41 238 callsubr
          197 -97 callgsubr
          158 -439 67 callsubr
        </CharString>
        <CharString name="dvK_KA">
          603 689 125 rmoveto
          -106 callgsubr
          -52 287 callsubr
          111 379 vlineto
          324 hmoveto
          40 -1033 -40 285 -479 vlineto
          -107 callsubr
          -196 -71 callgsubr
        </CharString>
        <CharString name="dvK_KHA">
          748 1013 22 callsubr
          -324 -45 rmoveto
          -61 -25 -37 -72 -25 -29 4 3 -19 vhcurveto
          70 312 callgsubr
          366 vlineto
          114 callgsubr
          469 115 rmoveto
          -1178 -40 285 -479 hlineto
          -107 callsubr
          -214 -17 callgsubr
        </CharString>
        <CharString name="dvK_LA">
          639 904 173 callgsubr
          -43 -31 -11 -19 -21 hvcurveto
          36 -16 -34 22 -67 80 callgsubr
          594 338 callsubr
          -1069 -40 285 -479 hlineto
          -107 callsubr
          -26 vlineto
          0 vlineto
          -6 vlineto
          54 callsubr
          28 -5 -11 24 vhcurveto
          -418 45 604 100 vlineto
          endchar
        </CharString>
        <CharString name="dvK_MA">
          605 870 426 -16 callsubr
        </CharString>
        <CharString name="dvK_NA">
          597 862 476 rmoveto
          -265 hlineto
          -39 -30 -8 -18 -21 hvcurveto
          33 -16 -34 21 -65 80 callgsubr
          552 vlineto
          -187 -429 -103 callgsubr
          332 283 rmoveto
          -1027 -40 285 -479 hlineto
          -107 callsubr
          -211 13 callgsubr
        </CharString>
        <CharString name="dvK_NNA">
          627 699 245 -13 callgsubr
          -389 148 callgsubr
          727 171 rmoveto
          -1057 0 callsubr
          -121 vlineto
          142 callsubr
          149 -604 44 -39 callgsubr
        </CharString>
        <CharString name="dvK_PA">
          447 712 188 rmoveto
          -10 callgsubr
          352 193 vlineto
          -402 148 callgsubr
          547 171 rmoveto
          -877 0 callsubr
          -114 vlineto
          56 callgsubr
        </CharString>
        <CharString name="dvK_PHA">
          617 699 175 -74 callgsubr
        </CharString>
        <CharString name="dvK_P_RA">
          447 519 604 rmoveto
          193 -344 hlineto
          -10 callgsubr
          -209 280 rmoveto
          98 callgsubr
          547 171 rmoveto
          -877 0 callsubr
          -42 vlineto
          108 callsubr
          vhcurveto
          3 callsubr
        </CharString>
        <CharString name="dvK_R">
          27 552 604 42 callgsubr
        </CharString>
        <CharString name="dvK_RA">
          212 622 604 rmoveto
          40 -642 -40 308 189 callsubr
          166 vlineto
          259 callsubr
          -166 vlineto
          -75 47 -42 90 vhcurveto
          -60 callsubr
        </CharString>
        <CharString name="dvK_SA">
          609 874 271 callsubr
          148 hlineto
          -355 -218 18 callsubr
          500 331 rmoveto
          -1039 -40 285 -479 hlineto
          -107 callsubr
          137 callgsubr
        </CharString>
        <CharString name="dvK_SHA">
          601 522 490 227 callsubr
          35 vlineto
          71 callgsubr
          144 104 40 -434 -43 callsubr
          419 -80 callsubr
          -220 vlineto
          -90 72 -48 95 51 32 7 9 30 vhcurveto
          -42 callsubr
        </CharString>
        <CharString name="dvK_SS">
          -11 495 382 rmoveto
          -182 hlineto
          271 callgsubr
          74 vlineto
          -60 callgsubr
          296 hlineto
          -203 116 rmoveto
          44 callgsubr
          endchar
        </CharString>
        <CharString name="dvK_SSA">
          198 337 532 rmoveto
          -60 callgsubr
          264 -342 -85 callsubr
          40 -145 -262 -150 hlineto
          271 callgsubr
          -45 hmoveto
          44 callgsubr
          endchar
        </CharString>
        <CharString name="dvK_SS_MA">
          583 848 152 callgsubr
          -429 rmoveto
          -99 callgsubr
          -369 72 rmoveto
          44 callgsubr
          115 112 rmoveto
          -40 254 -178 -82 vlineto
          -57 -36 -14 -30 -19 hvcurveto
          -154 hlineto
          271 callgsubr
          74 vlineto
          -60 callgsubr
          255 hlineto
          -1 -8 -1 -9 -9 vvcurveto
          -40 callsubr
          142 -386 -23 callsubr
        </CharString>
        <CharString name="dvK_SS_M_YA">
          884 1149 -75 callsubr
          -251 rmoveto
          -99 callgsubr
          -366 72 rmoveto
          44 callgsubr
          1002 112 rmoveto
          -890 -40 254 339 callgsubr
          -57 -36 -14 -30 -19 hvcurveto
          -151 hlineto
          271 callgsubr
          74 vlineto
          -60 callgsubr
          252 hlineto
          -1 -8 -1 -9 -9 vvcurveto
          81 callgsubr
        </CharString>
        <CharString name="dvK_SS_VA">
          447 712 -81 callgsubr
          -420 9 rmoveto
          44 callgsubr
          105 112 201 callsubr
          -95 -51 -50 -73 hvcurveto
          -154 hlineto
          271 callgsubr
          74 vlineto
          -60 callgsubr
          268 -143 hlineto
          -53 callgsubr
          40 vlineto
          endchar
        </CharString>
        <CharString name="dvK_SS_YA">
          518 783 110 callsubr
          -146 rmoveto
          44 callgsubr
          105 112 rmoveto
          -40 206 vlineto
          -49 callsubr
          -2 1 -182 hlineto
          271 callgsubr
          74 vlineto
          -60 callgsubr
          278 -89 hlineto
          97 callgsubr
          vlineto
          endchar
        </CharString>
        <CharString name="dvK_S_DDA">
          837 875 349 rmoveto
          -4 0 -4 -4 vvcurveto
          -148 hlineto
          -88 callgsubr
          372 -99 -83 205 callgsubr
          -356 -4 18 callsubr
          624 150 264 callsubr
          -1267 -40 285 -479 vlineto
          -107 callsubr
          9 callsubr
          50 36 13 23 23 hvcurveto
          181 hlineto
          -42 18 43 -22 70 hhcurveto
          -9 callgsubr
          168 callgsubr
        </CharString>
        <CharString name="dvK_S_P_LA">
          1273 1538 460 rmoveto
          20 callgsubr
          -169 vlineto
          -6 -22 -32 -6 -31 181 callgsubr
          616 vlineto
          -808 -257 rmoveto
          3 11 1 12 13 -72 callsubr
          151 -257 hlineto
          -188 36 200 callgsubr
          994 115 rmoveto
          -1703 -40 285 -479 hlineto
          -107 callsubr
          9 callsubr
          57 38 17 29 23 hvcurveto
          165 -55 hlineto
          108 callsubr
          31 31 6 6 23 vhcurveto
          -88 1 45 -55 109 hhcurveto
          12 callgsubr
          hvcurveto
          -91 callsubr
        </CharString>
        <CharString name="dvK_S_P_RA">
          852 924 604 rmoveto
          193 -344 hlineto
          -10 callgsubr
          -45 280 rmoveto
          -257 -149 vlineto
          3 11 1 12 13 -72 callsubr
          -37 -221 200 callgsubr
          573 115 rmoveto
          -1282 -40 285 -479 hlineto
          -107 callsubr
          9 callsubr
          57 38 17 29 23 hvcurveto
          168 hlineto
          -65 7 50 -39 88 3 callsubr
        </CharString>
        <CharString name="dvK_S_TA">
          857 1122 490 334 callsubr
          263 callsubr
          -46 -150 vlineto
          -88 callgsubr
          396 hlineto
          -603 -218 18 callsubr
          748 331 rmoveto
          -1287 -40 285 -479 hlineto
          -107 callsubr
          9 callsubr
          50 36 13 23 23 hvcurveto
          174 -182 hlineto
          -69 callgsubr
        </CharString>
        <CharString name="dvK_S_TTA">
          815 880 337 rmoveto
          -153 hlineto
          -88 callgsubr
          364 -100 -70 238 callgsubr
          -361 -1 18 callsubr
          616 149 305 callgsubr
          -1245 -40 285 -479 vlineto
          -107 callsubr
          9 callsubr
          50 36 13 23 23 hvcurveto
          177 -168 hlineto
          -64 callgsubr
          258 -32 callgsubr
          endchar
        </CharString>
        <CharString name="dvK_TA">
          206 327 435 rmoveto
          -11 callsubr
          -204 -83 callsubr
          204 -11 callgsubr
          128 289 40 -636 -40 302 -128 vlineto
          4 -26 -23 2 -33 hhcurveto
          -188 -40 83 hlineto
          -15 -20 -7 -25 -30 vvcurveto
          -201 -40 callgsubr
          201 vlineto
          45 12 30 70 30 27 -2 -4 25 vhcurveto
          -436 45 vlineto
          endchar
        </CharString>
        <CharString name="dvK_THA">
          569 835 644 109 callgsubr
          -34 hlineto
          53 -7 -33 36 -85 54 callgsubr
          161 139 40 -469 -43 callsubr
          402 -80 callsubr
          -65 266 callgsubr
        </CharString>
</ttFont>
